<?xml version="1.0" encoding="UTF-8" standalone="no"?>
<!DOCTYPE svg PUBLIC "-//W3C//DTD SVG 1.1//EN"
 "http://www.w3.org/Graphics/SVG/1.1/DTD/svg11.dtd">
<!-- Generated by graphviz version 2.40.1 (20161225.0304)
 -->
<!-- Title: %0 Pages: 1 -->
<svg width="507pt" height="260pt"
 viewBox="0.00 0.00 507.36 260.00" xmlns="http://www.w3.org/2000/svg" xmlns:xlink="http://www.w3.org/1999/xlink">
<g id="graph0" class="graph" transform="scale(1 1) rotate(0) translate(4 256)">
<title>%0</title>
<polygon fill="#ffffff" stroke="transparent" points="-4,4 -4,-256 503.3604,-256 503.3604,4 -4,4"/>
<!-- a:\OpenGateware\gateman&#45;pocket\target\pocket\pin_ddio_clk.v -->
<g id="node1" class="node">
<title>a:\OpenGateware\gateman&#45;pocket\target\pocket\pin_ddio_clk.v</title>
<polygon fill="#d3d3d3" stroke="#069302" points="191.3132,-252 86.935,-252 86.935,-248 82.935,-248 82.935,-244 86.935,-244 86.935,-224 82.935,-224 82.935,-220 86.935,-220 86.935,-216 191.3132,-216 191.3132,-252"/>
<polyline fill="none" stroke="#069302" points="86.935,-248 90.935,-248 90.935,-244 86.935,-244 "/>
<polyline fill="none" stroke="#069302" points="86.935,-224 90.935,-224 90.935,-220 86.935,-220 "/>
<text text-anchor="middle" x="139.1241" y="-229.8" font-family="Helvetica,sans-Serif" font-size="14.00" fill="#000000">pin_ddio_clk.v</text>
</g>
<!-- a:\OpenGateware\gateman&#45;pocket\target\pocket\mf_pllbase.v -->
<g id="node2" class="node">
<title>a:\OpenGateware\gateman&#45;pocket\target\pocket\mf_pllbase.v</title>
<polygon fill="#d3d3d3" stroke="#069302" points="97.1931,-108 3.0551,-108 3.0551,-104 -.9449,-104 -.9449,-100 3.0551,-100 3.0551,-80 -.9449,-80 -.9449,-76 3.0551,-76 3.0551,-72 97.1931,-72 97.1931,-108"/>
<polyline fill="none" stroke="#069302" points="3.0551,-104 7.0551,-104 7.0551,-100 3.0551,-100 "/>
<polyline fill="none" stroke="#069302" points="3.0551,-80 7.0551,-80 7.0551,-76 3.0551,-76 "/>
<text text-anchor="middle" x="50.1241" y="-85.8" font-family="Helvetica,sans-Serif" font-size="14.00" fill="#000000">mf_pllbase.v</text>
</g>
<!-- a:\OpenGateware\gateman&#45;pocket\platform\pocket\mf_ddio_bidir_12.v -->
<g id="node3" class="node">
<title>a:\OpenGateware\gateman&#45;pocket\platform\pocket\mf_ddio_bidir_12.v</title>
<polygon fill="#d3d3d3" stroke="#069302" points="134.3725,-180 -.1243,-180 -.1243,-176 -4.1243,-176 -4.1243,-172 -.1243,-172 -.1243,-152 -4.1243,-152 -4.1243,-148 -.1243,-148 -.1243,-144 134.3725,-144 134.3725,-180"/>
<polyline fill="none" stroke="#069302" points="-.1243,-176 3.8757,-176 3.8757,-172 -.1243,-172 "/>
<polyline fill="none" stroke="#069302" points="-.1243,-152 3.8757,-152 3.8757,-148 -.1243,-148 "/>
<text text-anchor="middle" x="67.1241" y="-157.8" font-family="Helvetica,sans-Serif" font-size="14.00" fill="#000000">mf_ddio_bidir_12.v</text>
</g>
<!-- a:\OpenGateware\gateman&#45;pocket\platform\pocket\mf_datatable.v -->
<g id="node4" class="node">
<title>a:\OpenGateware\gateman&#45;pocket\platform\pocket\mf_datatable.v</title>
<polygon fill="#d3d3d3" stroke="#069302" points="236.9321,-36 129.3161,-36 129.3161,-32 125.3161,-32 125.3161,-28 129.3161,-28 129.3161,-8 125.3161,-8 125.3161,-4 129.3161,-4 129.3161,0 236.9321,0 236.9321,-36"/>
<polyline fill="none" stroke="#069302" points="129.3161,-32 133.3161,-32 133.3161,-28 129.3161,-28 "/>
<polyline fill="none" stroke="#069302" points="129.3161,-8 133.3161,-8 133.3161,-4 129.3161,-4 "/>
<text text-anchor="middle" x="183.1241" y="-13.8" font-family="Helvetica,sans-Serif" font-size="14.00" fill="#000000">mf_datatable.v</text>
</g>
<!-- a:\OpenGateware\gateman&#45;pocket\platform\pocket\common.v -->
<g id="node5" class="node">
<title>a:\OpenGateware\gateman&#45;pocket\platform\pocket\common.v</title>
<polygon fill="#d3d3d3" stroke="#069302" points="376.1849,-36 296.0633,-36 296.0633,-32 292.0633,-32 292.0633,-28 296.0633,-28 296.0633,-8 292.0633,-8 292.0633,-4 296.0633,-4 296.0633,0 376.1849,0 376.1849,-36"/>
<polyline fill="none" stroke="#069302" points="296.0633,-32 300.0633,-32 300.0633,-28 296.0633,-28 "/>
<polyline fill="none" stroke="#069302" points="296.0633,-8 300.0633,-8 300.0633,-4 296.0633,-4 "/>
<text text-anchor="middle" x="336.1241" y="-13.8" font-family="Helvetica,sans-Serif" font-size="14.00" fill="#000000">common.v</text>
</g>
<!-- a:\OpenGateware\gateman&#45;pocket\target\pocket\core_bridge_cmd.v -->
<g id="node6" class="node">
<title>a:\OpenGateware\gateman&#45;pocket\target\pocket\core_bridge_cmd.v</title>
<polygon fill="#d3d3d3" stroke="#069302" points="250.6465,-108 115.6017,-108 115.6017,-104 111.6017,-104 111.6017,-100 115.6017,-100 115.6017,-80 111.6017,-80 111.6017,-76 115.6017,-76 115.6017,-72 250.6465,-72 250.6465,-108"/>
<polyline fill="none" stroke="#069302" points="115.6017,-104 119.6017,-104 119.6017,-100 115.6017,-100 "/>
<polyline fill="none" stroke="#069302" points="115.6017,-80 119.6017,-80 119.6017,-76 115.6017,-76 "/>
<text text-anchor="middle" x="183.1241" y="-85.8" font-family="Helvetica,sans-Serif" font-size="14.00" fill="#000000">core_bridge_cmd.v</text>
</g>
<!-- a:\OpenGateware\gateman&#45;pocket\target\pocket\core_bridge_cmd.v&#45;&gt;a:\OpenGateware\gateman&#45;pocket\platform\pocket\mf_datatable.v -->
<g id="edge2" class="edge">
<title>a:\OpenGateware\gateman&#45;pocket\target\pocket\core_bridge_cmd.v&#45;&gt;a:\OpenGateware\gateman&#45;pocket\platform\pocket\mf_datatable.v</title>
<path fill="none" stroke="#000000" d="M183.1241,-71.8314C183.1241,-64.131 183.1241,-54.9743 183.1241,-46.4166"/>
<polygon fill="#000000" stroke="#000000" points="186.6242,-46.4132 183.1241,-36.4133 179.6242,-46.4133 186.6242,-46.4132"/>
</g>
<!-- a:\OpenGateware\gateman&#45;pocket\target\pocket\core_bridge_cmd.v&#45;&gt;a:\OpenGateware\gateman&#45;pocket\platform\pocket\common.v -->
<g id="edge1" class="edge">
<title>a:\OpenGateware\gateman&#45;pocket\target\pocket\core_bridge_cmd.v&#45;&gt;a:\OpenGateware\gateman&#45;pocket\platform\pocket\common.v</title>
<path fill="none" stroke="#000000" d="M221.7325,-71.8314C242.0134,-62.2874 267.0479,-50.5065 288.5212,-40.4013"/>
<polygon fill="#000000" stroke="#000000" points="290.2355,-43.4629 297.7934,-36.038 287.2549,-37.1291 290.2355,-43.4629"/>
</g>
<!-- a:\OpenGateware\gateman&#45;pocket\target\pocket\core_top.v -->
<g id="node7" class="node">
<title>a:\OpenGateware\gateman&#45;pocket\target\pocket\core_top.v</title>
<polygon fill="#d3d3d3" stroke="#069302" points="233.9797,-180 152.2685,-180 152.2685,-176 148.2685,-176 148.2685,-172 152.2685,-172 152.2685,-152 148.2685,-152 148.2685,-148 152.2685,-148 152.2685,-144 233.9797,-144 233.9797,-180"/>
<polyline fill="none" stroke="#069302" points="152.2685,-176 156.2685,-176 156.2685,-172 152.2685,-172 "/>
<polyline fill="none" stroke="#069302" points="152.2685,-152 156.2685,-152 156.2685,-148 152.2685,-148 "/>
<text text-anchor="middle" x="193.1241" y="-157.8" font-family="Helvetica,sans-Serif" font-size="14.00" fill="#000000">core_top.v</text>
</g>
<!-- a:\OpenGateware\gateman&#45;pocket\target\pocket\core_top.v&#45;&gt;a:\OpenGateware\gateman&#45;pocket\target\pocket\mf_pllbase.v -->
<g id="edge3" class="edge">
<title>a:\OpenGateware\gateman&#45;pocket\target\pocket\core_top.v&#45;&gt;a:\OpenGateware\gateman&#45;pocket\target\pocket\mf_pllbase.v</title>
<path fill="none" stroke="#000000" d="M157.0392,-143.8314C138.3252,-134.4089 115.2809,-122.8062 95.3841,-112.7883"/>
<polygon fill="#000000" stroke="#000000" points="96.7033,-109.5339 86.1975,-108.1628 93.5552,-115.7861 96.7033,-109.5339"/>
</g>
<!-- a:\OpenGateware\gateman&#45;pocket\target\pocket\core_top.v&#45;&gt;a:\OpenGateware\gateman&#45;pocket\target\pocket\core_bridge_cmd.v -->
<g id="edge4" class="edge">
<title>a:\OpenGateware\gateman&#45;pocket\target\pocket\core_top.v&#45;&gt;a:\OpenGateware\gateman&#45;pocket\target\pocket\core_bridge_cmd.v</title>
<path fill="none" stroke="#000000" d="M190.6007,-143.8314C189.5312,-136.131 188.2594,-126.9743 187.0709,-118.4166"/>
<polygon fill="#000000" stroke="#000000" points="190.524,-117.8367 185.6815,-108.4133 183.5905,-118.7997 190.524,-117.8367"/>
</g>
<!-- a:\OpenGateware\gateman&#45;pocket\platform\pocket\io_pad_controller.v -->
<g id="node8" class="node">
<title>a:\OpenGateware\gateman&#45;pocket\platform\pocket\io_pad_controller.v</title>
<polygon fill="#d3d3d3" stroke="#069302" points="403.3725,-108 268.8757,-108 268.8757,-104 264.8757,-104 264.8757,-100 268.8757,-100 268.8757,-80 264.8757,-80 264.8757,-76 268.8757,-76 268.8757,-72 403.3725,-72 403.3725,-108"/>
<polyline fill="none" stroke="#069302" points="268.8757,-104 272.8757,-104 272.8757,-100 268.8757,-100 "/>
<polyline fill="none" stroke="#069302" points="268.8757,-80 272.8757,-80 272.8757,-76 268.8757,-76 "/>
<text text-anchor="middle" x="336.1241" y="-85.8" font-family="Helvetica,sans-Serif" font-size="14.00" fill="#000000">io_pad_controller.v</text>
</g>
<!-- a:\OpenGateware\gateman&#45;pocket\platform\pocket\io_pad_controller.v&#45;&gt;a:\OpenGateware\gateman&#45;pocket\platform\pocket\common.v -->
<g id="edge5" class="edge">
<title>a:\OpenGateware\gateman&#45;pocket\platform\pocket\io_pad_controller.v&#45;&gt;a:\OpenGateware\gateman&#45;pocket\platform\pocket\common.v</title>
<path fill="none" stroke="#000000" d="M336.1241,-71.8314C336.1241,-64.131 336.1241,-54.9743 336.1241,-46.4166"/>
<polygon fill="#000000" stroke="#000000" points="339.6242,-46.4132 336.1241,-36.4133 332.6242,-46.4133 339.6242,-46.4132"/>
</g>
<!-- a:\OpenGateware\gateman&#45;pocket\platform\pocket\io_bridge_peripheral.v -->
<g id="node9" class="node">
<title>a:\OpenGateware\gateman&#45;pocket\platform\pocket\io_bridge_peripheral.v</title>
<polygon fill="#d3d3d3" stroke="#069302" points="499.5974,-180 344.6508,-180 344.6508,-176 340.6508,-176 340.6508,-172 344.6508,-172 344.6508,-152 340.6508,-152 340.6508,-148 344.6508,-148 344.6508,-144 499.5974,-144 499.5974,-180"/>
<polyline fill="none" stroke="#069302" points="344.6508,-176 348.6508,-176 348.6508,-172 344.6508,-172 "/>
<polyline fill="none" stroke="#069302" points="344.6508,-152 348.6508,-152 348.6508,-148 344.6508,-148 "/>
<text text-anchor="middle" x="422.1241" y="-157.8" font-family="Helvetica,sans-Serif" font-size="14.00" fill="#000000">io_bridge_peripheral.v</text>
</g>
<!-- a:\OpenGateware\gateman&#45;pocket\platform\pocket\io_bridge_peripheral.v&#45;&gt;a:\OpenGateware\gateman&#45;pocket\platform\pocket\common.v -->
<g id="edge6" class="edge">
<title>a:\OpenGateware\gateman&#45;pocket\platform\pocket\io_bridge_peripheral.v&#45;&gt;a:\OpenGateware\gateman&#45;pocket\platform\pocket\common.v</title>
<path fill="none" stroke="#000000" d="M424.2689,-143.7413C425.6202,-124.5337 425.1195,-94.0859 412.1241,-72 404.9905,-59.8764 393.9417,-49.761 382.4581,-41.6874"/>
<polygon fill="#000000" stroke="#000000" points="384.3473,-38.7408 374.0691,-36.17 380.5007,-44.5893 384.3473,-38.7408"/>
</g>
<!-- a:\OpenGateware\gateman&#45;pocket\platform\pocket\apf_top.v -->
<g id="node10" class="node">
<title>a:\OpenGateware\gateman&#45;pocket\platform\pocket\apf_top.v</title>
<polygon fill="#d3d3d3" stroke="#069302" points="282.7101,-252 209.5381,-252 209.5381,-248 205.5381,-248 205.5381,-244 209.5381,-244 209.5381,-224 205.5381,-224 205.5381,-220 209.5381,-220 209.5381,-216 282.7101,-216 282.7101,-252"/>
<polyline fill="none" stroke="#069302" points="209.5381,-248 213.5381,-248 213.5381,-244 209.5381,-244 "/>
<polyline fill="none" stroke="#069302" points="209.5381,-224 213.5381,-224 213.5381,-220 209.5381,-220 "/>
<text text-anchor="middle" x="246.1241" y="-229.8" font-family="Helvetica,sans-Serif" font-size="14.00" fill="#000000">apf_top.v</text>
</g>
<!-- a:\OpenGateware\gateman&#45;pocket\platform\pocket\apf_top.v&#45;&gt;a:\OpenGateware\gateman&#45;pocket\platform\pocket\mf_ddio_bidir_12.v -->
<g id="edge7" class="edge">
<title>a:\OpenGateware\gateman&#45;pocket\platform\pocket\apf_top.v&#45;&gt;a:\OpenGateware\gateman&#45;pocket\platform\pocket\mf_ddio_bidir_12.v</title>
<path fill="none" stroke="#000000" d="M209.4688,-219.256C184.1059,-209.0541 149.9218,-195.3041 121.4101,-183.8357"/>
<polygon fill="#000000" stroke="#000000" points="122.5631,-180.527 111.9794,-180.0423 119.9508,-187.0213 122.5631,-180.527"/>
</g>
<!-- a:\OpenGateware\gateman&#45;pocket\platform\pocket\apf_top.v&#45;&gt;a:\OpenGateware\gateman&#45;pocket\target\pocket\core_top.v -->
<g id="edge8" class="edge">
<title>a:\OpenGateware\gateman&#45;pocket\platform\pocket\apf_top.v&#45;&gt;a:\OpenGateware\gateman&#45;pocket\target\pocket\core_top.v</title>
<path fill="none" stroke="#000000" d="M232.75,-215.8314C226.7079,-207.6232 219.4478,-197.7606 212.802,-188.7323"/>
<polygon fill="#000000" stroke="#000000" points="215.4252,-186.3918 206.6783,-180.4133 209.7878,-190.5415 215.4252,-186.3918"/>
</g>
<!-- a:\OpenGateware\gateman&#45;pocket\platform\pocket\apf_top.v&#45;&gt;a:\OpenGateware\gateman&#45;pocket\platform\pocket\io_pad_controller.v -->
<g id="edge9" class="edge">
<title>a:\OpenGateware\gateman&#45;pocket\platform\pocket\apf_top.v&#45;&gt;a:\OpenGateware\gateman&#45;pocket\platform\pocket\io_pad_controller.v</title>
<path fill="none" stroke="#000000" d="M257.5227,-215.7623C273.1439,-190.7682 301.3164,-145.6924 319.3486,-116.8409"/>
<polygon fill="#000000" stroke="#000000" points="322.4861,-118.4246 324.8181,-108.0896 316.5501,-114.7146 322.4861,-118.4246"/>
</g>
<!-- a:\OpenGateware\gateman&#45;pocket\platform\pocket\apf_top.v&#45;&gt;a:\OpenGateware\gateman&#45;pocket\platform\pocket\io_bridge_peripheral.v -->
<g id="edge10" class="edge">
<title>a:\OpenGateware\gateman&#45;pocket\platform\pocket\apf_top.v&#45;&gt;a:\OpenGateware\gateman&#45;pocket\platform\pocket\io_bridge_peripheral.v</title>
<path fill="none" stroke="#000000" d="M283.0195,-218.9064C307.8155,-208.7626 340.8958,-195.2298 368.5758,-183.9061"/>
<polygon fill="#000000" stroke="#000000" points="370.1887,-187.0279 378.1189,-180.0021 367.5382,-180.5491 370.1887,-187.0279"/>
</g>
</g>
</svg>
