<?xml version="1.0" encoding="UTF-8" standalone="no"?>
<!DOCTYPE svg PUBLIC "-//W3C//DTD SVG 1.1//EN"
 "http://www.w3.org/Graphics/SVG/1.1/DTD/svg11.dtd">
<!-- Generated by graphviz version 2.40.1 (20161225.0304)
 -->
<!-- Title: %0 Pages: 1 -->
<svg width="666pt" height="260pt"
 viewBox="0.00 0.00 665.64 260.00" xmlns="http://www.w3.org/2000/svg" xmlns:xlink="http://www.w3.org/1999/xlink">
<g id="graph0" class="graph" transform="scale(1 1) rotate(0) translate(4 256)">
<title>%0</title>
<polygon fill="#ffffff" stroke="transparent" points="-4,4 -4,-256 661.6353,-256 661.6353,4 -4,4"/>
<!-- a:\OpenGateware\gateman&#45;pocket\target\pocket\core_bridge_cmd.v -->
<g id="node1" class="node">
<title>a:\OpenGateware\gateman&#45;pocket\target\pocket\core_bridge_cmd.v</title>
<polygon fill="#d3d3d3" stroke="#069302" points="135.0336,-108 -.0112,-108 -.0112,-104 -4.0112,-104 -4.0112,-100 -.0112,-100 -.0112,-80 -4.0112,-80 -4.0112,-76 -.0112,-76 -.0112,-72 135.0336,-72 135.0336,-108"/>
<polyline fill="none" stroke="#069302" points="-.0112,-104 3.9888,-104 3.9888,-100 -.0112,-100 "/>
<polyline fill="none" stroke="#069302" points="-.0112,-80 3.9888,-80 3.9888,-76 -.0112,-76 "/>
<text text-anchor="middle" x="67.5112" y="-85.8" font-family="Helvetica,sans-Serif" font-size="14.00" fill="#000000">core_bridge_cmd.v</text>
</g>
<!-- a:\OpenGateware\gateman&#45;pocket\platform\pocket\common.v -->
<g id="node6" class="node">
<title>a:\OpenGateware\gateman&#45;pocket\platform\pocket\common.v</title>
<polygon fill="#d3d3d3" stroke="#069302" points="383.572,-36 303.4504,-36 303.4504,-32 299.4504,-32 299.4504,-28 303.4504,-28 303.4504,-8 299.4504,-8 299.4504,-4 303.4504,-4 303.4504,0 383.572,0 383.572,-36"/>
<polyline fill="none" stroke="#069302" points="303.4504,-32 307.4504,-32 307.4504,-28 303.4504,-28 "/>
<polyline fill="none" stroke="#069302" points="303.4504,-8 307.4504,-8 307.4504,-4 303.4504,-4 "/>
<text text-anchor="middle" x="343.5112" y="-13.8" font-family="Helvetica,sans-Serif" font-size="14.00" fill="#000000">common.v</text>
</g>
<!-- a:\OpenGateware\gateman&#45;pocket\target\pocket\core_bridge_cmd.v&#45;&gt;a:\OpenGateware\gateman&#45;pocket\platform\pocket\common.v -->
<g id="edge2" class="edge">
<title>a:\OpenGateware\gateman&#45;pocket\target\pocket\core_bridge_cmd.v&#45;&gt;a:\OpenGateware\gateman&#45;pocket\platform\pocket\common.v</title>
<path fill="none" stroke="#000000" d="M135.0284,-72.3868C183.9897,-59.6143 249.1315,-42.6208 293.4828,-31.0509"/>
<polygon fill="#000000" stroke="#000000" points="294.3803,-34.434 303.173,-28.523 292.6133,-27.6606 294.3803,-34.434"/>
</g>
<!-- a:\OpenGateware\gateman&#45;pocket\platform\pocket\mf_datatable.v -->
<g id="node9" class="node">
<title>a:\OpenGateware\gateman&#45;pocket\platform\pocket\mf_datatable.v</title>
<polygon fill="#d3d3d3" stroke="#069302" points="121.3192,-36 13.7032,-36 13.7032,-32 9.7032,-32 9.7032,-28 13.7032,-28 13.7032,-8 9.7032,-8 9.7032,-4 13.7032,-4 13.7032,0 121.3192,0 121.3192,-36"/>
<polyline fill="none" stroke="#069302" points="13.7032,-32 17.7032,-32 17.7032,-28 13.7032,-28 "/>
<polyline fill="none" stroke="#069302" points="13.7032,-8 17.7032,-8 17.7032,-4 13.7032,-4 "/>
<text text-anchor="middle" x="67.5112" y="-13.8" font-family="Helvetica,sans-Serif" font-size="14.00" fill="#000000">mf_datatable.v</text>
</g>
<!-- a:\OpenGateware\gateman&#45;pocket\target\pocket\core_bridge_cmd.v&#45;&gt;a:\OpenGateware\gateman&#45;pocket\platform\pocket\mf_datatable.v -->
<g id="edge1" class="edge">
<title>a:\OpenGateware\gateman&#45;pocket\target\pocket\core_bridge_cmd.v&#45;&gt;a:\OpenGateware\gateman&#45;pocket\platform\pocket\mf_datatable.v</title>
<path fill="none" stroke="#000000" d="M67.5112,-71.8314C67.5112,-64.131 67.5112,-54.9743 67.5112,-46.4166"/>
<polygon fill="#000000" stroke="#000000" points="71.0113,-46.4132 67.5112,-36.4133 64.0113,-46.4133 71.0113,-46.4132"/>
</g>
<!-- a:\OpenGateware\gateman&#45;pocket\target\pocket\core_top.v -->
<g id="node2" class="node">
<title>a:\OpenGateware\gateman&#45;pocket\target\pocket\core_top.v</title>
<polygon fill="#d3d3d3" stroke="#069302" points="241.3668,-180 159.6556,-180 159.6556,-176 155.6556,-176 155.6556,-172 159.6556,-172 159.6556,-152 155.6556,-152 155.6556,-148 159.6556,-148 159.6556,-144 241.3668,-144 241.3668,-180"/>
<polyline fill="none" stroke="#069302" points="159.6556,-176 163.6556,-176 163.6556,-172 159.6556,-172 "/>
<polyline fill="none" stroke="#069302" points="159.6556,-152 163.6556,-152 163.6556,-148 159.6556,-148 "/>
<text text-anchor="middle" x="200.5112" y="-157.8" font-family="Helvetica,sans-Serif" font-size="14.00" fill="#000000">core_top.v</text>
</g>
<!-- a:\OpenGateware\gateman&#45;pocket\target\pocket\core_top.v&#45;&gt;a:\OpenGateware\gateman&#45;pocket\target\pocket\core_bridge_cmd.v -->
<g id="edge4" class="edge">
<title>a:\OpenGateware\gateman&#45;pocket\target\pocket\core_top.v&#45;&gt;a:\OpenGateware\gateman&#45;pocket\target\pocket\core_bridge_cmd.v</title>
<path fill="none" stroke="#000000" d="M166.9497,-143.8314C149.6231,-134.4516 128.3054,-122.9112 109.8576,-112.9244"/>
<polygon fill="#000000" stroke="#000000" points="111.5223,-109.8457 101.062,-108.1628 108.1898,-116.0015 111.5223,-109.8457"/>
</g>
<!-- a:\OpenGateware\gateman&#45;pocket\target\pocket\mf_pllbase.v -->
<g id="node3" class="node">
<title>a:\OpenGateware\gateman&#45;pocket\target\pocket\mf_pllbase.v</title>
<polygon fill="#d3d3d3" stroke="#069302" points="247.5802,-108 153.4422,-108 153.4422,-104 149.4422,-104 149.4422,-100 153.4422,-100 153.4422,-80 149.4422,-80 149.4422,-76 153.4422,-76 153.4422,-72 247.5802,-72 247.5802,-108"/>
<polyline fill="none" stroke="#069302" points="153.4422,-104 157.4422,-104 157.4422,-100 153.4422,-100 "/>
<polyline fill="none" stroke="#069302" points="153.4422,-80 157.4422,-80 157.4422,-76 153.4422,-76 "/>
<text text-anchor="middle" x="200.5112" y="-85.8" font-family="Helvetica,sans-Serif" font-size="14.00" fill="#000000">mf_pllbase.v</text>
</g>
<!-- a:\OpenGateware\gateman&#45;pocket\target\pocket\core_top.v&#45;&gt;a:\OpenGateware\gateman&#45;pocket\target\pocket\mf_pllbase.v -->
<g id="edge3" class="edge">
<title>a:\OpenGateware\gateman&#45;pocket\target\pocket\core_top.v&#45;&gt;a:\OpenGateware\gateman&#45;pocket\target\pocket\mf_pllbase.v</title>
<path fill="none" stroke="#000000" d="M200.5112,-143.8314C200.5112,-136.131 200.5112,-126.9743 200.5112,-118.4166"/>
<polygon fill="#000000" stroke="#000000" points="204.0113,-118.4132 200.5112,-108.4133 197.0113,-118.4133 204.0113,-118.4132"/>
</g>
<!-- a:\OpenGateware\gateman&#45;pocket\target\pocket\pin_ddio_clk.v -->
<g id="node4" class="node">
<title>a:\OpenGateware\gateman&#45;pocket\target\pocket\pin_ddio_clk.v</title>
<polygon fill="#d3d3d3" stroke="#069302" points="549.7003,-252 445.3221,-252 445.3221,-248 441.3221,-248 441.3221,-244 445.3221,-244 445.3221,-224 441.3221,-224 441.3221,-220 445.3221,-220 445.3221,-216 549.7003,-216 549.7003,-252"/>
<polyline fill="none" stroke="#069302" points="445.3221,-248 449.3221,-248 449.3221,-244 445.3221,-244 "/>
<polyline fill="none" stroke="#069302" points="445.3221,-224 449.3221,-224 449.3221,-220 445.3221,-220 "/>
<text text-anchor="middle" x="497.5112" y="-229.8" font-family="Helvetica,sans-Serif" font-size="14.00" fill="#000000">pin_ddio_clk.v</text>
</g>
<!-- a:\OpenGateware\gateman&#45;pocket\platform\pocket\apf_top.v -->
<g id="node5" class="node">
<title>a:\OpenGateware\gateman&#45;pocket\platform\pocket\apf_top.v</title>
<polygon fill="#d3d3d3" stroke="#069302" points="427.0972,-252 353.9252,-252 353.9252,-248 349.9252,-248 349.9252,-244 353.9252,-244 353.9252,-224 349.9252,-224 349.9252,-220 353.9252,-220 353.9252,-216 427.0972,-216 427.0972,-252"/>
<polyline fill="none" stroke="#069302" points="353.9252,-248 357.9252,-248 357.9252,-244 353.9252,-244 "/>
<polyline fill="none" stroke="#069302" points="353.9252,-224 357.9252,-224 357.9252,-220 353.9252,-220 "/>
<text text-anchor="middle" x="390.5112" y="-229.8" font-family="Helvetica,sans-Serif" font-size="14.00" fill="#000000">apf_top.v</text>
</g>
<!-- a:\OpenGateware\gateman&#45;pocket\platform\pocket\apf_top.v&#45;&gt;a:\OpenGateware\gateman&#45;pocket\target\pocket\core_top.v -->
<g id="edge5" class="edge">
<title>a:\OpenGateware\gateman&#45;pocket\platform\pocket\apf_top.v&#45;&gt;a:\OpenGateware\gateman&#45;pocket\target\pocket\core_top.v</title>
<path fill="none" stroke="#000000" d="M353.8773,-220.1177C324.6572,-209.0448 283.4094,-193.414 251.0491,-181.1512"/>
<polygon fill="#000000" stroke="#000000" points="251.9061,-177.7331 241.3147,-177.4624 249.4255,-184.2789 251.9061,-177.7331"/>
</g>
<!-- a:\OpenGateware\gateman&#45;pocket\platform\pocket\io_bridge_peripheral.v -->
<g id="node7" class="node">
<title>a:\OpenGateware\gateman&#45;pocket\platform\pocket\io_bridge_peripheral.v</title>
<polygon fill="#d3d3d3" stroke="#069302" points="420.9845,-108 266.0379,-108 266.0379,-104 262.0379,-104 262.0379,-100 266.0379,-100 266.0379,-80 262.0379,-80 262.0379,-76 266.0379,-76 266.0379,-72 420.9845,-72 420.9845,-108"/>
<polyline fill="none" stroke="#069302" points="266.0379,-104 270.0379,-104 270.0379,-100 266.0379,-100 "/>
<polyline fill="none" stroke="#069302" points="266.0379,-80 270.0379,-80 270.0379,-76 266.0379,-76 "/>
<text text-anchor="middle" x="343.5112" y="-85.8" font-family="Helvetica,sans-Serif" font-size="14.00" fill="#000000">io_bridge_peripheral.v</text>
</g>
<!-- a:\OpenGateware\gateman&#45;pocket\platform\pocket\apf_top.v&#45;&gt;a:\OpenGateware\gateman&#45;pocket\platform\pocket\io_bridge_peripheral.v -->
<g id="edge8" class="edge">
<title>a:\OpenGateware\gateman&#45;pocket\platform\pocket\apf_top.v&#45;&gt;a:\OpenGateware\gateman&#45;pocket\platform\pocket\io_bridge_peripheral.v</title>
<path fill="none" stroke="#000000" d="M379.3698,-215.5702C373.6247,-205.3859 366.9177,-192.3312 362.5112,-180 355.3237,-159.8866 350.4603,-136.2232 347.4543,-118.2096"/>
<polygon fill="#000000" stroke="#000000" points="350.9108,-117.6585 345.8956,-108.3259 343.9962,-118.749 350.9108,-117.6585"/>
</g>
<!-- a:\OpenGateware\gateman&#45;pocket\platform\pocket\io_pad_controller.v -->
<g id="node8" class="node">
<title>a:\OpenGateware\gateman&#45;pocket\platform\pocket\io_pad_controller.v</title>
<polygon fill="#d3d3d3" stroke="#069302" points="505.7596,-180 371.2628,-180 371.2628,-176 367.2628,-176 367.2628,-172 371.2628,-172 371.2628,-152 367.2628,-152 367.2628,-148 371.2628,-148 371.2628,-144 505.7596,-144 505.7596,-180"/>
<polyline fill="none" stroke="#069302" points="371.2628,-176 375.2628,-176 375.2628,-172 371.2628,-172 "/>
<polyline fill="none" stroke="#069302" points="371.2628,-152 375.2628,-152 375.2628,-148 371.2628,-148 "/>
<text text-anchor="middle" x="438.5112" y="-157.8" font-family="Helvetica,sans-Serif" font-size="14.00" fill="#000000">io_pad_controller.v</text>
</g>
<!-- a:\OpenGateware\gateman&#45;pocket\platform\pocket\apf_top.v&#45;&gt;a:\OpenGateware\gateman&#45;pocket\platform\pocket\io_pad_controller.v -->
<g id="edge6" class="edge">
<title>a:\OpenGateware\gateman&#45;pocket\platform\pocket\apf_top.v&#45;&gt;a:\OpenGateware\gateman&#45;pocket\platform\pocket\io_pad_controller.v</title>
<path fill="none" stroke="#000000" d="M402.6236,-215.8314C408.0393,-207.7079 414.5354,-197.9637 420.5033,-189.0118"/>
<polygon fill="#000000" stroke="#000000" points="423.6008,-190.6753 426.2357,-180.4133 417.7765,-186.7923 423.6008,-190.6753"/>
</g>
<!-- a:\OpenGateware\gateman&#45;pocket\platform\pocket\mf_ddio_bidir_12.v -->
<g id="node10" class="node">
<title>a:\OpenGateware\gateman&#45;pocket\platform\pocket\mf_ddio_bidir_12.v</title>
<polygon fill="#d3d3d3" stroke="#069302" points="657.7596,-180 523.2628,-180 523.2628,-176 519.2628,-176 519.2628,-172 523.2628,-172 523.2628,-152 519.2628,-152 519.2628,-148 523.2628,-148 523.2628,-144 657.7596,-144 657.7596,-180"/>
<polyline fill="none" stroke="#069302" points="523.2628,-176 527.2628,-176 527.2628,-172 523.2628,-172 "/>
<polyline fill="none" stroke="#069302" points="523.2628,-152 527.2628,-152 527.2628,-148 523.2628,-148 "/>
<text text-anchor="middle" x="590.5112" y="-157.8" font-family="Helvetica,sans-Serif" font-size="14.00" fill="#000000">mf_ddio_bidir_12.v</text>
</g>
<!-- a:\OpenGateware\gateman&#45;pocket\platform\pocket\apf_top.v&#45;&gt;a:\OpenGateware\gateman&#45;pocket\platform\pocket\mf_ddio_bidir_12.v -->
<g id="edge7" class="edge">
<title>a:\OpenGateware\gateman&#45;pocket\platform\pocket\apf_top.v&#45;&gt;a:\OpenGateware\gateman&#45;pocket\platform\pocket\mf_ddio_bidir_12.v</title>
<path fill="none" stroke="#000000" d="M427.1244,-219.5371C430.2938,-218.3264 433.4557,-217.1331 436.5112,-216 466.4521,-204.8966 499.8804,-193.1028 527.9214,-183.3788"/>
<polygon fill="#000000" stroke="#000000" points="529.2945,-186.6074 537.6006,-180.0302 527.0058,-179.9921 529.2945,-186.6074"/>
</g>
<!-- a:\OpenGateware\gateman&#45;pocket\platform\pocket\io_bridge_peripheral.v&#45;&gt;a:\OpenGateware\gateman&#45;pocket\platform\pocket\common.v -->
<g id="edge9" class="edge">
<title>a:\OpenGateware\gateman&#45;pocket\platform\pocket\io_bridge_peripheral.v&#45;&gt;a:\OpenGateware\gateman&#45;pocket\platform\pocket\common.v</title>
<path fill="none" stroke="#000000" d="M343.5112,-71.8314C343.5112,-64.131 343.5112,-54.9743 343.5112,-46.4166"/>
<polygon fill="#000000" stroke="#000000" points="347.0113,-46.4132 343.5112,-36.4133 340.0113,-46.4133 347.0113,-46.4132"/>
</g>
<!-- a:\OpenGateware\gateman&#45;pocket\platform\pocket\io_pad_controller.v&#45;&gt;a:\OpenGateware\gateman&#45;pocket\platform\pocket\common.v -->
<g id="edge10" class="edge">
<title>a:\OpenGateware\gateman&#45;pocket\platform\pocket\io_pad_controller.v&#45;&gt;a:\OpenGateware\gateman&#45;pocket\platform\pocket\common.v</title>
<path fill="none" stroke="#000000" d="M441.1165,-143.9647C442.9567,-124.6686 443.079,-93.8888 429.5112,-72 420.7425,-57.8535 406.7456,-46.7971 392.5691,-38.4754"/>
<polygon fill="#000000" stroke="#000000" points="394.2147,-35.3862 383.7641,-33.6443 390.8475,-41.5231 394.2147,-35.3862"/>
</g>
</g>
</svg>
