<?xml version="1.0" encoding="UTF-8" standalone="no"?>
<!DOCTYPE svg PUBLIC "-//W3C//DTD SVG 1.1//EN"
 "http://www.w3.org/Graphics/SVG/1.1/DTD/svg11.dtd">
<!-- Generated by graphviz version 2.40.1 (20161225.0304)
 -->
<!-- Title: state transitions Pages: 1 -->
<svg width="494pt" height="352pt"
 viewBox="0.00 0.00 494.00 352.00" xmlns="http://www.w3.org/2000/svg" xmlns:xlink="http://www.w3.org/1999/xlink">
<g id="graph0" class="graph" transform="scale(1 1) rotate(0) translate(4 348)">
<title>state transitions</title>
<polygon fill="#ffffff" stroke="transparent" points="-4,4 -4,-348 490,-348 490,4 -4,4"/>
<g id="clust1" class="cluster state regular">
<title>cluster_state</title>
<path fill="none" stroke="#000000" stroke-width="2" d="M20,-8C20,-8 466,-8 466,-8 472,-8 478,-14 478,-20 478,-20 478,-324 478,-324 478,-330 472,-336 466,-336 466,-336 20,-336 20,-336 14,-336 8,-330 8,-324 8,-324 8,-20 8,-20 8,-14 14,-8 20,-8"/>
<text text-anchor="start" x="229.9944" y="-317.2" font-family="Helvetica,sans-Serif" font-size="12.00" fill="#000000">state</text>
</g>
<!-- state -->
<!-- ST_RESET -->
<g id="node2" class="node state regular">
<title>ST_RESET</title>
<polygon fill="#ffffff" fill-opacity="0.003922" stroke="transparent" stroke-width="2" points="448,-298 364,-298 364,-262 448,-262 448,-298"/>
<text text-anchor="start" x="374.9968" y="-276.2" font-family="Helvetica,sans-Serif" font-size="12.00" fill="#000000">ST_RESET</text>
<path fill="none" stroke="#000000" stroke-width="2" d="M376.3333,-263C376.3333,-263 435.6667,-263 435.6667,-263 441.3333,-263 447,-268.6667 447,-274.3333 447,-274.3333 447,-285.6667 447,-285.6667 447,-291.3333 441.3333,-297 435.6667,-297 435.6667,-297 376.3333,-297 376.3333,-297 370.6667,-297 365,-291.3333 365,-285.6667 365,-285.6667 365,-274.3333 365,-274.3333 365,-268.6667 370.6667,-263 376.3333,-263"/>
</g>
<!-- ST_ADDR_0 -->
<g id="node3" class="node state regular">
<title>ST_ADDR_0</title>
<polygon fill="#ffffff" fill-opacity="0.003922" stroke="transparent" stroke-width="2" points="451.5,-216 360.5,-216 360.5,-180 451.5,-180 451.5,-216"/>
<text text-anchor="start" x="371.8314" y="-194.2" font-family="Helvetica,sans-Serif" font-size="12.00" fill="#000000">ST_ADDR_0</text>
<path fill="none" stroke="#000000" stroke-width="2" d="M372.8333,-181C372.8333,-181 439.1667,-181 439.1667,-181 444.8333,-181 450.5,-186.6667 450.5,-192.3333 450.5,-192.3333 450.5,-203.6667 450.5,-203.6667 450.5,-209.3333 444.8333,-215 439.1667,-215 439.1667,-215 372.8333,-215 372.8333,-215 367.1667,-215 361.5,-209.3333 361.5,-203.6667 361.5,-203.6667 361.5,-192.3333 361.5,-192.3333 361.5,-186.6667 367.1667,-181 372.8333,-181"/>
</g>
<!-- ST_RESET&#45;&gt;ST_ADDR_0 -->
<g id="edge1" class="edge transition">
<title>ST_RESET&#45;&gt;ST_ADDR_0</title>
<path fill="none" stroke="#000000" d="M406,-261.8015C406,-251.3976 406,-238.1215 406,-226.3768"/>
<polygon fill="#000000" stroke="#000000" points="409.5001,-226.1476 406,-216.1476 402.5001,-226.1476 409.5001,-226.1476"/>
<text text-anchor="middle" x="407.3895" y="-236" font-family="Helvetica,sans-Serif" font-size="10.00" fill="#000000"> </text>
</g>
<!-- ST_WRITE_0 -->
<g id="node4" class="node state regular">
<title>ST_WRITE_0</title>
<polygon fill="#ffffff" fill-opacity="0.003922" stroke="transparent" stroke-width="2" points="342,-298 246,-298 246,-262 342,-262 342,-298"/>
<text text-anchor="start" x="256.998" y="-276.2" font-family="Helvetica,sans-Serif" font-size="12.00" fill="#000000">ST_WRITE_0</text>
<path fill="none" stroke="#ff0000" stroke-width="2" d="M258.3333,-263C258.3333,-263 329.6667,-263 329.6667,-263 335.3333,-263 341,-268.6667 341,-274.3333 341,-274.3333 341,-285.6667 341,-285.6667 341,-291.3333 335.3333,-297 329.6667,-297 329.6667,-297 258.3333,-297 258.3333,-297 252.6667,-297 247,-291.3333 247,-285.6667 247,-285.6667 247,-274.3333 247,-274.3333 247,-268.6667 252.6667,-263 258.3333,-263"/>
</g>
<!-- ST_WRITE_1 -->
<g id="node5" class="node state regular">
<title>ST_WRITE_1</title>
<polygon fill="#ffffff" fill-opacity="0.003922" stroke="transparent" stroke-width="2" points="224,-298 128,-298 128,-262 224,-262 224,-298"/>
<text text-anchor="start" x="138.998" y="-276.2" font-family="Helvetica,sans-Serif" font-size="12.00" fill="#000000">ST_WRITE_1</text>
<path fill="none" stroke="#000000" stroke-width="2" d="M140.3333,-263C140.3333,-263 211.6667,-263 211.6667,-263 217.3333,-263 223,-268.6667 223,-274.3333 223,-274.3333 223,-285.6667 223,-285.6667 223,-291.3333 217.3333,-297 211.6667,-297 211.6667,-297 140.3333,-297 140.3333,-297 134.6667,-297 129,-291.3333 129,-285.6667 129,-285.6667 129,-274.3333 129,-274.3333 129,-268.6667 134.6667,-263 140.3333,-263"/>
</g>
<!-- ST_WRITE_2 -->
<g id="node6" class="node state regular">
<title>ST_WRITE_2</title>
<polygon fill="#ffffff" fill-opacity="0.003922" stroke="transparent" stroke-width="2" points="232,-216 136,-216 136,-180 232,-180 232,-216"/>
<text text-anchor="start" x="146.998" y="-194.2" font-family="Helvetica,sans-Serif" font-size="12.00" fill="#000000">ST_WRITE_2</text>
<path fill="none" stroke="#000000" stroke-width="2" d="M148.3333,-181C148.3333,-181 219.6667,-181 219.6667,-181 225.3333,-181 231,-186.6667 231,-192.3333 231,-192.3333 231,-203.6667 231,-203.6667 231,-209.3333 225.3333,-215 219.6667,-215 219.6667,-215 148.3333,-215 148.3333,-215 142.6667,-215 137,-209.3333 137,-203.6667 137,-203.6667 137,-192.3333 137,-192.3333 137,-186.6667 142.6667,-181 148.3333,-181"/>
</g>
<!-- ST_WRITE_1&#45;&gt;ST_WRITE_2 -->
<g id="edge2" class="edge transition">
<title>ST_WRITE_1&#45;&gt;ST_WRITE_2</title>
<path fill="none" stroke="#000000" d="M177.7755,-261.8015C178.7905,-251.3976 180.0857,-238.1215 181.2315,-226.3768"/>
<polygon fill="#000000" stroke="#000000" points="184.7419,-226.4402 182.2295,-216.1476 177.775,-225.7605 184.7419,-226.4402"/>
<text text-anchor="middle" x="181.3895" y="-236" font-family="Helvetica,sans-Serif" font-size="10.00" fill="#000000"> </text>
</g>
<!-- ST_READ_0 -->
<g id="node7" class="node state regular">
<title>ST_READ_0</title>
<polygon fill="#ffffff" fill-opacity="0.003922" stroke="transparent" stroke-width="2" points="106,-298 16,-298 16,-262 106,-262 106,-298"/>
<text text-anchor="start" x="26.6614" y="-276.2" font-family="Helvetica,sans-Serif" font-size="12.00" fill="#000000">ST_READ_0</text>
<path fill="none" stroke="#000000" stroke-width="2" d="M28.3333,-263C28.3333,-263 93.6667,-263 93.6667,-263 99.3333,-263 105,-268.6667 105,-274.3333 105,-274.3333 105,-285.6667 105,-285.6667 105,-291.3333 99.3333,-297 93.6667,-297 93.6667,-297 28.3333,-297 28.3333,-297 22.6667,-297 17,-291.3333 17,-285.6667 17,-285.6667 17,-274.3333 17,-274.3333 17,-268.6667 22.6667,-263 28.3333,-263"/>
</g>
<!-- ST_READ_1 -->
<g id="node8" class="node state regular">
<title>ST_READ_1</title>
<polygon fill="#ffffff" fill-opacity="0.003922" stroke="transparent" stroke-width="2" points="106,-216 16,-216 16,-180 106,-180 106,-216"/>
<text text-anchor="start" x="26.6614" y="-194.2" font-family="Helvetica,sans-Serif" font-size="12.00" fill="#000000">ST_READ_1</text>
<path fill="none" stroke="#000000" stroke-width="2" d="M28.3333,-181C28.3333,-181 93.6667,-181 93.6667,-181 99.3333,-181 105,-186.6667 105,-192.3333 105,-192.3333 105,-203.6667 105,-203.6667 105,-209.3333 99.3333,-215 93.6667,-215 93.6667,-215 28.3333,-215 28.3333,-215 22.6667,-215 17,-209.3333 17,-203.6667 17,-203.6667 17,-192.3333 17,-192.3333 17,-186.6667 22.6667,-181 28.3333,-181"/>
</g>
<!-- ST_READ_0&#45;&gt;ST_READ_1 -->
<g id="edge3" class="edge transition">
<title>ST_READ_0&#45;&gt;ST_READ_1</title>
<path fill="none" stroke="#000000" d="M61,-261.8015C61,-251.3976 61,-238.1215 61,-226.3768"/>
<polygon fill="#000000" stroke="#000000" points="64.5001,-226.1476 61,-216.1476 57.5001,-226.1476 64.5001,-226.1476"/>
<text text-anchor="start" x="61" y="-236" font-family="Helvetica,sans-Serif" font-size="10.00" fill="#000000">read_cnt == 4&#45;1 &#160;&#160;</text>
</g>
<!-- ST_READ_2 -->
<g id="node9" class="node state regular">
<title>ST_READ_2</title>
<polygon fill="#ffffff" fill-opacity="0.003922" stroke="transparent" stroke-width="2" points="106,-134 16,-134 16,-98 106,-98 106,-134"/>
<text text-anchor="start" x="26.6614" y="-112.2" font-family="Helvetica,sans-Serif" font-size="12.00" fill="#000000">ST_READ_2</text>
<path fill="none" stroke="#000000" stroke-width="2" d="M28.3333,-99C28.3333,-99 93.6667,-99 93.6667,-99 99.3333,-99 105,-104.6667 105,-110.3333 105,-110.3333 105,-121.6667 105,-121.6667 105,-127.3333 99.3333,-133 93.6667,-133 93.6667,-133 28.3333,-133 28.3333,-133 22.6667,-133 17,-127.3333 17,-121.6667 17,-121.6667 17,-110.3333 17,-110.3333 17,-104.6667 22.6667,-99 28.3333,-99"/>
</g>
<!-- ST_READ_1&#45;&gt;ST_READ_2 -->
<g id="edge4" class="edge transition">
<title>ST_READ_1&#45;&gt;ST_READ_2</title>
<path fill="none" stroke="#000000" d="M61,-179.8015C61,-169.3976 61,-156.1215 61,-144.3768"/>
<polygon fill="#000000" stroke="#000000" points="64.5001,-144.1476 61,-134.1476 57.5001,-144.1476 64.5001,-144.1476"/>
<text text-anchor="middle" x="62.3895" y="-154" font-family="Helvetica,sans-Serif" font-size="10.00" fill="#000000"> </text>
</g>
<!-- ST_READ_3 -->
<g id="node10" class="node state regular">
<title>ST_READ_3</title>
<polygon fill="#ffffff" fill-opacity="0.003922" stroke="transparent" stroke-width="2" points="106,-52 16,-52 16,-16 106,-16 106,-52"/>
<text text-anchor="start" x="26.6614" y="-30.2" font-family="Helvetica,sans-Serif" font-size="12.00" fill="#000000">ST_READ_3</text>
<path fill="none" stroke="#000000" stroke-width="2" d="M28.3333,-17C28.3333,-17 93.6667,-17 93.6667,-17 99.3333,-17 105,-22.6667 105,-28.3333 105,-28.3333 105,-39.6667 105,-39.6667 105,-45.3333 99.3333,-51 93.6667,-51 93.6667,-51 28.3333,-51 28.3333,-51 22.6667,-51 17,-45.3333 17,-39.6667 17,-39.6667 17,-28.3333 17,-28.3333 17,-22.6667 22.6667,-17 28.3333,-17"/>
</g>
<!-- ST_READ_2&#45;&gt;ST_READ_3 -->
<g id="edge5" class="edge transition">
<title>ST_READ_2&#45;&gt;ST_READ_3</title>
<path fill="none" stroke="#000000" d="M61,-97.8015C61,-87.3976 61,-74.1215 61,-62.3768"/>
<polygon fill="#000000" stroke="#000000" points="64.5001,-62.1476 61,-52.1476 57.5001,-62.1476 64.5001,-62.1476"/>
<text text-anchor="start" x="61" y="-72" font-family="Helvetica,sans-Serif" font-size="10.00" fill="#000000">spis_done &#160;&#160;</text>
</g>
</g>
</svg>
