<?xml version="1.0" encoding="UTF-8" standalone="no"?>
<!DOCTYPE svg PUBLIC "-//W3C//DTD SVG 1.1//EN"
 "http://www.w3.org/Graphics/SVG/1.1/DTD/svg11.dtd">
<!-- Generated by graphviz version 2.40.1 (20161225.0304)
 -->
<!-- Title: state transitions Pages: 1 -->
<svg width="434pt" height="352pt"
 viewBox="0.00 0.00 434.00 352.00" xmlns="http://www.w3.org/2000/svg" xmlns:xlink="http://www.w3.org/1999/xlink">
<g id="graph0" class="graph" transform="scale(1 1) rotate(0) translate(4 348)">
<title>state transitions</title>
<polygon fill="#ffffff" stroke="transparent" points="-4,4 -4,-348 430,-348 430,4 -4,4"/>
<g id="clust1" class="cluster state regular">
<title>cluster_tr_state</title>
<path fill="none" stroke="#000000" stroke-width="2" d="M20,-8C20,-8 406,-8 406,-8 412,-8 418,-14 418,-20 418,-20 418,-324 418,-324 418,-330 412,-336 406,-336 406,-336 20,-336 20,-336 14,-336 8,-330 8,-324 8,-324 8,-20 8,-20 8,-14 14,-8 20,-8"/>
<text text-anchor="start" x="192.9942" y="-317.2" font-family="Helvetica,sans-Serif" font-size="12.00" fill="#000000">tr_state</text>
</g>
<!-- tr_state -->
<!-- TR_IDLE -->
<g id="node2" class="node state regular">
<title>TR_IDLE</title>
<polygon fill="#ffffff" fill-opacity="0.003922" stroke="transparent" stroke-width="2" points="217.5,-216 146.5,-216 146.5,-180 217.5,-180 217.5,-216"/>
<text text-anchor="start" x="157.8322" y="-194.2" font-family="Helvetica,sans-Serif" font-size="12.00" fill="#000000">TR_IDLE</text>
<path fill="none" stroke="#000000" stroke-width="2" d="M158.8333,-181C158.8333,-181 205.1667,-181 205.1667,-181 210.8333,-181 216.5,-186.6667 216.5,-192.3333 216.5,-192.3333 216.5,-203.6667 216.5,-203.6667 216.5,-209.3333 210.8333,-215 205.1667,-215 205.1667,-215 158.8333,-215 158.8333,-215 153.1667,-215 147.5,-209.3333 147.5,-203.6667 147.5,-203.6667 147.5,-192.3333 147.5,-192.3333 147.5,-186.6667 153.1667,-181 158.8333,-181"/>
</g>
<!-- TR_TX_START -->
<g id="node3" class="node state regular">
<title>TR_TX_START</title>
<polygon fill="#ffffff" fill-opacity="0.003922" stroke="transparent" stroke-width="2" points="127.5,-134 22.5,-134 22.5,-98 127.5,-98 127.5,-134"/>
<text text-anchor="start" x="33.5006" y="-112.2" font-family="Helvetica,sans-Serif" font-size="12.00" fill="#000000">TR_TX_START</text>
<path fill="none" stroke="#000000" stroke-width="2" d="M34.8333,-99C34.8333,-99 115.1667,-99 115.1667,-99 120.8333,-99 126.5,-104.6667 126.5,-110.3333 126.5,-110.3333 126.5,-121.6667 126.5,-121.6667 126.5,-127.3333 120.8333,-133 115.1667,-133 115.1667,-133 34.8333,-133 34.8333,-133 29.1667,-133 23.5,-127.3333 23.5,-121.6667 23.5,-121.6667 23.5,-110.3333 23.5,-110.3333 23.5,-104.6667 29.1667,-99 34.8333,-99"/>
</g>
<!-- TR_IDLE&#45;&gt;TR_TX_START -->
<g id="edge1" class="edge transition">
<title>TR_IDLE&#45;&gt;TR_TX_START</title>
<path fill="none" stroke="#000000" d="M146.3068,-192.9961C112.8807,-187.4924 66.4688,-177.4658 55.461,-163 50.9727,-157.1017 51.5229,-150.0231 54.2918,-143.1709"/>
<polygon fill="#000000" stroke="#000000" points="57.5172,-144.5631 59.1779,-134.0993 51.3543,-141.2436 57.5172,-144.5631"/>
<text text-anchor="start" x="55" y="-154" font-family="Helvetica,sans-Serif" font-size="10.00" fill="#000000">tx_word_start &amp; ~tx_word_start_1 &#160;&#160;</text>
</g>
<!-- TR_RX_START -->
<g id="node6" class="node state regular">
<title>TR_RX_START</title>
<polygon fill="#ffffff" fill-opacity="0.003922" stroke="transparent" stroke-width="2" points="347.5,-134 240.5,-134 240.5,-98 347.5,-98 347.5,-134"/>
<text text-anchor="start" x="251.8346" y="-112.2" font-family="Helvetica,sans-Serif" font-size="12.00" fill="#000000">TR_RX_START</text>
<path fill="none" stroke="#000000" stroke-width="2" d="M252.8333,-99C252.8333,-99 335.1667,-99 335.1667,-99 340.8333,-99 346.5,-104.6667 346.5,-110.3333 346.5,-110.3333 346.5,-121.6667 346.5,-121.6667 346.5,-127.3333 340.8333,-133 335.1667,-133 335.1667,-133 252.8333,-133 252.8333,-133 247.1667,-133 241.5,-127.3333 241.5,-121.6667 241.5,-121.6667 241.5,-110.3333 241.5,-110.3333 241.5,-104.6667 247.1667,-99 252.8333,-99"/>
</g>
<!-- TR_IDLE&#45;&gt;TR_RX_START -->
<g id="edge2" class="edge transition">
<title>TR_IDLE&#45;&gt;TR_RX_START</title>
<path fill="none" stroke="#000000" d="M206.8564,-179.8015C222.8067,-168.1237 243.6995,-152.8272 261.0292,-140.1393"/>
<polygon fill="#000000" stroke="#000000" points="263.212,-142.879 269.2131,-134.1476 259.0768,-137.231 263.212,-142.879"/>
<text text-anchor="start" x="245" y="-154" font-family="Helvetica,sans-Serif" font-size="10.00" fill="#000000">pad_1wire_f &#160;&#160;</text>
</g>
<!-- TR_TX_CONTINUE -->
<g id="node4" class="node state regular">
<title>TR_TX_CONTINUE</title>
<polygon fill="#ffffff" fill-opacity="0.003922" stroke="transparent" stroke-width="2" points="145.5,-52 16.5,-52 16.5,-16 145.5,-16 145.5,-52"/>
<text text-anchor="start" x="27.8384" y="-30.2" font-family="Helvetica,sans-Serif" font-size="12.00" fill="#000000">TR_TX_CONTINUE</text>
<path fill="none" stroke="#000000" stroke-width="2" d="M28.8333,-17C28.8333,-17 133.1667,-17 133.1667,-17 138.8333,-17 144.5,-22.6667 144.5,-28.3333 144.5,-28.3333 144.5,-39.6667 144.5,-39.6667 144.5,-45.3333 138.8333,-51 133.1667,-51 133.1667,-51 28.8333,-51 28.8333,-51 23.1667,-51 17.5,-45.3333 17.5,-39.6667 17.5,-39.6667 17.5,-28.3333 17.5,-28.3333 17.5,-22.6667 23.1667,-17 28.8333,-17"/>
</g>
<!-- TR_TX_START&#45;&gt;TR_TX_CONTINUE -->
<g id="edge3" class="edge transition">
<title>TR_TX_START&#45;&gt;TR_TX_CONTINUE</title>
<path fill="none" stroke="#000000" d="M76.3316,-97.8015C77.0929,-87.3976 78.0643,-74.1215 78.9237,-62.3768"/>
<polygon fill="#000000" stroke="#000000" points="82.4329,-62.3764 79.6721,-52.1476 75.4516,-61.8655 82.4329,-62.3764"/>
<text text-anchor="start" x="78" y="-72" font-family="Helvetica,sans-Serif" font-size="10.00" fill="#000000">&amp;tr_cnt &#160;&#160;</text>
</g>
<!-- TR_TX_DONE -->
<g id="node5" class="node state regular">
<title>TR_TX_DONE</title>
<polygon fill="#ffffff" fill-opacity="0.003922" stroke="transparent" stroke-width="2" points="294.5,-298 193.5,-298 193.5,-262 294.5,-262 294.5,-298"/>
<text text-anchor="start" x="204.834" y="-276.2" font-family="Helvetica,sans-Serif" font-size="12.00" fill="#000000">TR_TX_DONE</text>
<path fill="none" stroke="#000000" stroke-width="2" d="M205.8333,-263C205.8333,-263 282.1667,-263 282.1667,-263 287.8333,-263 293.5,-268.6667 293.5,-274.3333 293.5,-274.3333 293.5,-285.6667 293.5,-285.6667 293.5,-291.3333 287.8333,-297 282.1667,-297 282.1667,-297 205.8333,-297 205.8333,-297 200.1667,-297 194.5,-291.3333 194.5,-285.6667 194.5,-285.6667 194.5,-274.3333 194.5,-274.3333 194.5,-268.6667 200.1667,-263 205.8333,-263"/>
</g>
<!-- TR_TX_DONE&#45;&gt;TR_IDLE -->
<g id="edge4" class="edge transition">
<title>TR_TX_DONE&#45;&gt;TR_IDLE</title>
<path fill="none" stroke="#000000" d="M230.2402,-261.8015C221.8922,-250.7606 211.0985,-236.4851 201.8383,-224.2378"/>
<polygon fill="#000000" stroke="#000000" points="204.5443,-222.0133 195.7213,-216.1476 198.9607,-226.2351 204.5443,-222.0133"/>
<text text-anchor="middle" x="218.3895" y="-236" font-family="Helvetica,sans-Serif" font-size="10.00" fill="#000000"> </text>
</g>
<!-- TR_RX_WAITEDGE -->
<g id="node7" class="node state regular">
<title>TR_RX_WAITEDGE</title>
<polygon fill="#ffffff" fill-opacity="0.003922" stroke="transparent" stroke-width="2" points="409.5,-216 278.5,-216 278.5,-180 409.5,-180 409.5,-216"/>
<text text-anchor="start" x="289.5004" y="-194.2" font-family="Helvetica,sans-Serif" font-size="12.00" fill="#000000">TR_RX_WAITEDGE</text>
<path fill="none" stroke="#000000" stroke-width="2" d="M290.8333,-181C290.8333,-181 397.1667,-181 397.1667,-181 402.8333,-181 408.5,-186.6667 408.5,-192.3333 408.5,-192.3333 408.5,-203.6667 408.5,-203.6667 408.5,-209.3333 402.8333,-215 397.1667,-215 397.1667,-215 290.8333,-215 290.8333,-215 285.1667,-215 279.5,-209.3333 279.5,-203.6667 279.5,-203.6667 279.5,-192.3333 279.5,-192.3333 279.5,-186.6667 285.1667,-181 290.8333,-181"/>
</g>
<!-- TR_RX_WAITEDGE&#45;&gt;TR_RX_START -->
<g id="edge5" class="edge transition">
<title>TR_RX_WAITEDGE&#45;&gt;TR_RX_START</title>
<path fill="none" stroke="#000000" d="M332.9034,-179.8015C326.3006,-168.973 317.8006,-155.033 310.4308,-142.9466"/>
<polygon fill="#000000" stroke="#000000" points="313.26,-140.8634 305.0656,-134.1476 307.2834,-144.5077 313.26,-140.8634"/>
<text text-anchor="start" x="322" y="-154" font-family="Helvetica,sans-Serif" font-size="10.00" fill="#000000">pad_1wire_f &#160;&#160;</text>
</g>
<!-- TR_RX_DONE -->
<g id="node8" class="node state regular">
<title>TR_RX_DONE</title>
<polygon fill="#ffffff" fill-opacity="0.003922" stroke="transparent" stroke-width="2" points="171,-298 69,-298 69,-262 171,-262 171,-298"/>
<text text-anchor="start" x="79.668" y="-276.2" font-family="Helvetica,sans-Serif" font-size="12.00" fill="#000000">TR_RX_DONE</text>
<path fill="none" stroke="#000000" stroke-width="2" d="M81.3333,-263C81.3333,-263 158.6667,-263 158.6667,-263 164.3333,-263 170,-268.6667 170,-274.3333 170,-274.3333 170,-285.6667 170,-285.6667 170,-291.3333 164.3333,-297 158.6667,-297 158.6667,-297 81.3333,-297 81.3333,-297 75.6667,-297 70,-291.3333 70,-285.6667 70,-285.6667 70,-274.3333 70,-274.3333 70,-268.6667 75.6667,-263 81.3333,-263"/>
</g>
<!-- TR_RX_DONE&#45;&gt;TR_IDLE -->
<g id="edge6" class="edge transition">
<title>TR_RX_DONE&#45;&gt;TR_IDLE</title>
<path fill="none" stroke="#000000" d="M133.7598,-261.8015C142.1078,-250.7606 152.9015,-236.4851 162.1617,-224.2378"/>
<polygon fill="#000000" stroke="#000000" points="165.0393,-226.2351 168.2787,-216.1476 159.4557,-222.0133 165.0393,-226.2351"/>
<text text-anchor="middle" x="156.3895" y="-236" font-family="Helvetica,sans-Serif" font-size="10.00" fill="#000000"> </text>
</g>
</g>
</svg>
