<?xml version="1.0" encoding="UTF-8" standalone="no"?>
<!DOCTYPE svg PUBLIC "-//W3C//DTD SVG 1.1//EN"
 "http://www.w3.org/Graphics/SVG/1.1/DTD/svg11.dtd">
<!-- Generated by graphviz version 2.40.1 (20161225.0304)
 -->
<!-- Title: state transitions Pages: 1 -->
<svg width="120pt" height="352pt"
 viewBox="0.00 0.00 120.00 352.00" xmlns="http://www.w3.org/2000/svg" xmlns:xlink="http://www.w3.org/1999/xlink">
<g id="graph0" class="graph" transform="scale(1 1) rotate(0) translate(4 348)">
<title>state transitions</title>
<polygon fill="#ffffff" stroke="transparent" points="-4,4 -4,-348 116,-348 116,4 -4,4"/>
<g id="clust1" class="cluster state regular">
<title>cluster_rx_latch_idx</title>
<path fill="none" stroke="#000000" stroke-width="2" d="M20,-8C20,-8 92,-8 92,-8 98,-8 104,-14 104,-20 104,-20 104,-324 104,-324 104,-330 98,-336 92,-336 92,-336 20,-336 20,-336 14,-336 8,-330 8,-324 8,-324 8,-20 8,-20 8,-14 14,-8 20,-8"/>
<text text-anchor="start" x="23.9954" y="-317.2" font-family="Helvetica,sans-Serif" font-size="12.00" fill="#000000">rx_latch_idx</text>
</g>
<!-- rx_latch_idx -->
<!-- 0 -->
<g id="node2" class="node state regular">
<title>0</title>
<polygon fill="#ffffff" fill-opacity="0.003922" stroke="transparent" stroke-width="2" points="73,-298 17,-298 17,-262 73,-262 73,-298"/>
<text text-anchor="start" x="41.6646" y="-276.2" font-family="Helvetica,sans-Serif" font-size="12.00" fill="#000000">0</text>
<path fill="none" stroke="#000000" stroke-width="2" d="M29.3333,-263C29.3333,-263 60.6667,-263 60.6667,-263 66.3333,-263 72,-268.6667 72,-274.3333 72,-274.3333 72,-285.6667 72,-285.6667 72,-291.3333 66.3333,-297 60.6667,-297 60.6667,-297 29.3333,-297 29.3333,-297 23.6667,-297 18,-291.3333 18,-285.6667 18,-285.6667 18,-274.3333 18,-274.3333 18,-268.6667 23.6667,-263 29.3333,-263"/>
</g>
<!-- 1 -->
<g id="node3" class="node state regular">
<title>1</title>
<polygon fill="#ffffff" fill-opacity="0.003922" stroke="transparent" stroke-width="2" points="72,-216 16,-216 16,-180 72,-180 72,-216"/>
<text text-anchor="start" x="40.6646" y="-194.2" font-family="Helvetica,sans-Serif" font-size="12.00" fill="#000000">1</text>
<path fill="none" stroke="#000000" stroke-width="2" d="M28.3333,-181C28.3333,-181 59.6667,-181 59.6667,-181 65.3333,-181 71,-186.6667 71,-192.3333 71,-192.3333 71,-203.6667 71,-203.6667 71,-209.3333 65.3333,-215 59.6667,-215 59.6667,-215 28.3333,-215 28.3333,-215 22.6667,-215 17,-209.3333 17,-203.6667 17,-203.6667 17,-192.3333 17,-192.3333 17,-186.6667 22.6667,-181 28.3333,-181"/>
</g>
<!-- 0&#45;&gt;1 -->
<g id="edge1" class="edge transition">
<title>0&#45;&gt;1</title>
<path fill="none" stroke="#000000" d="M44.7781,-261.8015C44.6512,-251.3976 44.4893,-238.1215 44.3461,-226.3768"/>
<polygon fill="#000000" stroke="#000000" points="47.8431,-226.1041 44.2213,-216.1476 40.8436,-226.1896 47.8431,-226.1041"/>
<text text-anchor="middle" x="45.3895" y="-236" font-family="Helvetica,sans-Serif" font-size="10.00" fill="#000000"> </text>
</g>
<!-- 2 -->
<g id="node4" class="node state regular">
<title>2</title>
<polygon fill="#ffffff" fill-opacity="0.003922" stroke="transparent" stroke-width="2" points="72,-134 16,-134 16,-98 72,-98 72,-134"/>
<text text-anchor="start" x="40.6646" y="-112.2" font-family="Helvetica,sans-Serif" font-size="12.00" fill="#000000">2</text>
<path fill="none" stroke="#000000" stroke-width="2" d="M28.3333,-99C28.3333,-99 59.6667,-99 59.6667,-99 65.3333,-99 71,-104.6667 71,-110.3333 71,-110.3333 71,-121.6667 71,-121.6667 71,-127.3333 65.3333,-133 59.6667,-133 59.6667,-133 28.3333,-133 28.3333,-133 22.6667,-133 17,-127.3333 17,-121.6667 17,-121.6667 17,-110.3333 17,-110.3333 17,-104.6667 22.6667,-99 28.3333,-99"/>
</g>
<!-- 1&#45;&gt;2 -->
<g id="edge2" class="edge transition">
<title>1&#45;&gt;2</title>
<path fill="none" stroke="#000000" d="M44,-179.8015C44,-169.3976 44,-156.1215 44,-144.3768"/>
<polygon fill="#000000" stroke="#000000" points="47.5001,-144.1476 44,-134.1476 40.5001,-144.1476 47.5001,-144.1476"/>
<text text-anchor="middle" x="45.3895" y="-154" font-family="Helvetica,sans-Serif" font-size="10.00" fill="#000000"> </text>
</g>
<!-- 3 -->
<g id="node5" class="node state regular">
<title>3</title>
<polygon fill="#ffffff" fill-opacity="0.003922" stroke="transparent" stroke-width="2" points="84,-52 28,-52 28,-16 84,-16 84,-52"/>
<text text-anchor="start" x="52.6646" y="-30.2" font-family="Helvetica,sans-Serif" font-size="12.00" fill="#000000">3</text>
<path fill="none" stroke="#000000" stroke-width="2" d="M40.3333,-17C40.3333,-17 71.6667,-17 71.6667,-17 77.3333,-17 83,-22.6667 83,-28.3333 83,-28.3333 83,-39.6667 83,-39.6667 83,-45.3333 77.3333,-51 71.6667,-51 71.6667,-51 40.3333,-51 40.3333,-51 34.6667,-51 29,-45.3333 29,-39.6667 29,-39.6667 29,-28.3333 29,-28.3333 29,-22.6667 34.6667,-17 40.3333,-17"/>
</g>
<!-- 2&#45;&gt;3 -->
<g id="edge3" class="edge transition">
<title>2&#45;&gt;3</title>
<path fill="none" stroke="#000000" d="M46.6632,-97.8015C48.1857,-87.3976 50.1286,-74.1215 51.8473,-62.3768"/>
<polygon fill="#000000" stroke="#000000" points="55.3593,-62.549 53.3443,-52.1476 48.4331,-61.5354 55.3593,-62.549"/>
<text text-anchor="middle" x="51.3895" y="-72" font-family="Helvetica,sans-Serif" font-size="10.00" fill="#000000"> </text>
</g>
<!-- 3&#45;&gt;0 -->
<g id="edge4" class="edge transition">
<title>3&#45;&gt;0</title>
<path fill="none" stroke="#000000" d="M65.9549,-52.1334C72.2218,-64.6161 79.724,-81.8067 83,-98 93.3991,-149.4031 96.8827,-165.4264 83,-216 79.3562,-229.274 72.1653,-242.5825 65.0102,-253.5984"/>
<polygon fill="#000000" stroke="#000000" points="62.093,-251.6639 59.348,-261.897 67.8753,-255.6093 62.093,-251.6639"/>
<text text-anchor="middle" x="93.3895" y="-154" font-family="Helvetica,sans-Serif" font-size="10.00" fill="#000000"> </text>
</g>
</g>
</svg>
