<?xml version="1.0" encoding="UTF-8" standalone="no"?>
<!DOCTYPE svg PUBLIC "-//W3C//DTD SVG 1.1//EN"
 "http://www.w3.org/Graphics/SVG/1.1/DTD/svg11.dtd">
<!-- Generated by graphviz version 2.40.1 (20161225.0304)
 -->
<!-- Title: state transitions Pages: 1 -->
<svg width="387pt" height="352pt"
 viewBox="0.00 0.00 387.00 352.00" xmlns="http://www.w3.org/2000/svg" xmlns:xlink="http://www.w3.org/1999/xlink">
<g id="graph0" class="graph" transform="scale(1 1) rotate(0) translate(4 348)">
<title>state transitions</title>
<polygon fill="#ffffff" stroke="transparent" points="-4,4 -4,-348 383,-348 383,4 -4,4"/>
<g id="clust1" class="cluster state regular">
<title>cluster_state</title>
<path fill="none" stroke="#000000" stroke-width="2" d="M20,-8C20,-8 359,-8 359,-8 365,-8 371,-14 371,-20 371,-20 371,-324 371,-324 371,-330 365,-336 359,-336 359,-336 20,-336 20,-336 14,-336 8,-330 8,-324 8,-324 8,-20 8,-20 8,-14 14,-8 20,-8"/>
<text text-anchor="start" x="176.4944" y="-317.2" font-family="Helvetica,sans-Serif" font-size="12.00" fill="#000000">state</text>
</g>
<!-- state -->
<!-- ST_RESET -->
<g id="node2" class="node state regular">
<title>ST_RESET</title>
<polygon fill="#ffffff" fill-opacity="0.003922" stroke="transparent" stroke-width="2" points="206,-298 122,-298 122,-262 206,-262 206,-298"/>
<text text-anchor="start" x="132.9968" y="-276.2" font-family="Helvetica,sans-Serif" font-size="12.00" fill="#000000">ST_RESET</text>
<path fill="none" stroke="#000000" stroke-width="2" d="M134.3333,-263C134.3333,-263 193.6667,-263 193.6667,-263 199.3333,-263 205,-268.6667 205,-274.3333 205,-274.3333 205,-285.6667 205,-285.6667 205,-291.3333 199.3333,-297 193.6667,-297 193.6667,-297 134.3333,-297 134.3333,-297 128.6667,-297 123,-291.3333 123,-285.6667 123,-285.6667 123,-274.3333 123,-274.3333 123,-268.6667 128.6667,-263 134.3333,-263"/>
</g>
<!-- ST_IDLE -->
<g id="node3" class="node state regular">
<title>ST_IDLE</title>
<polygon fill="#ffffff" fill-opacity="0.003922" stroke="transparent" stroke-width="2" points="199,-216 129,-216 129,-180 199,-180 199,-216"/>
<text text-anchor="start" x="139.6622" y="-194.2" font-family="Helvetica,sans-Serif" font-size="12.00" fill="#000000">ST_IDLE</text>
<path fill="none" stroke="#000000" stroke-width="2" d="M141.3333,-181C141.3333,-181 186.6667,-181 186.6667,-181 192.3333,-181 198,-186.6667 198,-192.3333 198,-192.3333 198,-203.6667 198,-203.6667 198,-209.3333 192.3333,-215 186.6667,-215 186.6667,-215 141.3333,-215 141.3333,-215 135.6667,-215 130,-209.3333 130,-203.6667 130,-203.6667 130,-192.3333 130,-192.3333 130,-186.6667 135.6667,-181 141.3333,-181"/>
</g>
<!-- ST_RESET&#45;&gt;ST_IDLE -->
<g id="edge1" class="edge transition">
<title>ST_RESET&#45;&gt;ST_IDLE</title>
<path fill="none" stroke="#000000" d="M164,-261.8015C164,-251.3976 164,-238.1215 164,-226.3768"/>
<polygon fill="#000000" stroke="#000000" points="167.5001,-226.1476 164,-216.1476 160.5001,-226.1476 167.5001,-226.1476"/>
<text text-anchor="start" x="164" y="-236" font-family="Helvetica,sans-Serif" font-size="10.00" fill="#000000">&amp;rx_timeout[19:0] &#160;&#160;</text>
</g>
<!-- ST_RX_BUTTON_1 -->
<g id="node4" class="node state regular">
<title>ST_RX_BUTTON_1</title>
<polygon fill="#ffffff" fill-opacity="0.003922" stroke="transparent" stroke-width="2" points="146,-134 16,-134 16,-98 146,-98 146,-134"/>
<text text-anchor="start" x="26.9964" y="-112.2" font-family="Helvetica,sans-Serif" font-size="12.00" fill="#000000">ST_RX_BUTTON_1</text>
<path fill="none" stroke="#000000" stroke-width="2" d="M28.3333,-99C28.3333,-99 133.6667,-99 133.6667,-99 139.3333,-99 145,-104.6667 145,-110.3333 145,-110.3333 145,-121.6667 145,-121.6667 145,-127.3333 139.3333,-133 133.6667,-133 133.6667,-133 28.3333,-133 28.3333,-133 22.6667,-133 17,-127.3333 17,-121.6667 17,-121.6667 17,-110.3333 17,-110.3333 17,-104.6667 22.6667,-99 28.3333,-99"/>
</g>
<!-- ST_IDLE&#45;&gt;ST_RX_BUTTON_1 -->
<g id="edge2" class="edge transition">
<title>ST_IDLE&#45;&gt;ST_RX_BUTTON_1</title>
<path fill="none" stroke="#000000" d="M128.972,-191.4187C100.5074,-185.2745 63.6614,-175.2285 54.738,-163 50.0891,-156.6292 51.3575,-149.3523 55.1476,-142.4587"/>
<polygon fill="#000000" stroke="#000000" points="58.1799,-144.2298 61.0415,-134.0288 52.443,-140.2188 58.1799,-144.2298"/>
<text text-anchor="start" x="54" y="-154" font-family="Helvetica,sans-Serif" font-size="10.00" fill="#000000">auto_poll_queue &#160;&#160;</text>
</g>
<!-- ST_END_TX -->
<g id="node6" class="node state regular">
<title>ST_END_TX</title>
<polygon fill="#ffffff" fill-opacity="0.003922" stroke="transparent" stroke-width="2" points="298.5,-134 207.5,-134 207.5,-98 298.5,-98 298.5,-134"/>
<text text-anchor="start" x="218.8314" y="-112.2" font-family="Helvetica,sans-Serif" font-size="12.00" fill="#000000">ST_END_TX</text>
<path fill="none" stroke="#000000" stroke-width="2" d="M219.8333,-99C219.8333,-99 286.1667,-99 286.1667,-99 291.8333,-99 297.5,-104.6667 297.5,-110.3333 297.5,-110.3333 297.5,-121.6667 297.5,-121.6667 297.5,-127.3333 291.8333,-133 286.1667,-133 286.1667,-133 219.8333,-133 219.8333,-133 214.1667,-133 208.5,-127.3333 208.5,-121.6667 208.5,-121.6667 208.5,-110.3333 208.5,-110.3333 208.5,-104.6667 214.1667,-99 219.8333,-99"/>
</g>
<!-- ST_IDLE&#45;&gt;ST_END_TX -->
<g id="edge3" class="edge transition">
<title>ST_IDLE&#45;&gt;ST_END_TX</title>
<path fill="none" stroke="#000000" d="M167.1881,-179.7788C169.6346,-170.2759 173.8642,-158.9989 181.068,-151 185.988,-145.5369 191.9491,-140.8366 198.3104,-136.8172"/>
<polygon fill="#000000" stroke="#000000" points="200.2284,-139.7523 207.1726,-131.7506 196.7541,-133.6754 200.2284,-139.7523"/>
<text text-anchor="start" x="181" y="-154" font-family="Helvetica,sans-Serif" font-size="10.00" fill="#000000">heartbeat_queue &#160;&#160;</text>
</g>
<!-- ST_RX_BUTTON_2 -->
<g id="node5" class="node state regular">
<title>ST_RX_BUTTON_2</title>
<polygon fill="#ffffff" fill-opacity="0.003922" stroke="transparent" stroke-width="2" points="146,-52 16,-52 16,-16 146,-16 146,-52"/>
<text text-anchor="start" x="26.9964" y="-30.2" font-family="Helvetica,sans-Serif" font-size="12.00" fill="#000000">ST_RX_BUTTON_2</text>
<path fill="none" stroke="#000000" stroke-width="2" d="M28.3333,-17C28.3333,-17 133.6667,-17 133.6667,-17 139.3333,-17 145,-22.6667 145,-28.3333 145,-28.3333 145,-39.6667 145,-39.6667 145,-45.3333 139.3333,-51 133.6667,-51 133.6667,-51 28.3333,-51 28.3333,-51 22.6667,-51 17,-45.3333 17,-39.6667 17,-39.6667 17,-28.3333 17,-28.3333 17,-22.6667 22.6667,-17 28.3333,-17"/>
</g>
<!-- ST_RX_BUTTON_1&#45;&gt;ST_RX_BUTTON_2 -->
<g id="edge4" class="edge transition">
<title>ST_RX_BUTTON_1&#45;&gt;ST_RX_BUTTON_2</title>
<path fill="none" stroke="#000000" d="M81,-97.8015C81,-87.3976 81,-74.1215 81,-62.3768"/>
<polygon fill="#000000" stroke="#000000" points="84.5001,-62.1476 81,-52.1476 77.5001,-62.1476 84.5001,-62.1476"/>
<text text-anchor="start" x="81" y="-72" font-family="Helvetica,sans-Serif" font-size="10.00" fill="#000000">tx_word_done &#160;&#160;</text>
</g>
<!-- ST_END_TX&#45;&gt;ST_IDLE -->
<g id="edge5" class="edge transition">
<title>ST_END_TX&#45;&gt;ST_IDLE</title>
<path fill="none" stroke="#000000" d="M264.8904,-134.2421C269.3313,-143.5262 272.0023,-154.5945 266,-163 258.9477,-172.8758 232.8809,-181.7249 208.866,-188.0545"/>
<polygon fill="#000000" stroke="#000000" points="207.9473,-184.6766 199.1118,-190.5233 209.6649,-191.4626 207.9473,-184.6766"/>
<text text-anchor="start" x="269" y="-154" font-family="Helvetica,sans-Serif" font-size="10.00" fill="#000000">tx_word_done &#160;&#160;</text>
</g>
</g>
</svg>
