<?xml version="1.0" encoding="UTF-8" standalone="no"?>
<!DOCTYPE svg PUBLIC "-//W3C//DTD SVG 1.1//EN"
 "http://www.w3.org/Graphics/SVG/1.1/DTD/svg11.dtd">
<!-- Generated by graphviz version 2.40.1 (20161225.0304)
 -->
<!-- Title: state transitions Pages: 1 -->
<svg width="170pt" height="516pt"
 viewBox="0.00 0.00 170.00 516.00" xmlns="http://www.w3.org/2000/svg" xmlns:xlink="http://www.w3.org/1999/xlink">
<g id="graph0" class="graph" transform="scale(1 1) rotate(0) translate(4 512)">
<title>state transitions</title>
<polygon fill="#ffffff" stroke="transparent" points="-4,4 -4,-512 166,-512 166,4 -4,4"/>
<g id="clust1" class="cluster state regular">
<title>cluster_spis</title>
<path fill="none" stroke="#000000" stroke-width="2" d="M20,-8C20,-8 142,-8 142,-8 148,-8 154,-14 154,-20 154,-20 154,-488 154,-488 154,-494 148,-500 142,-500 142,-500 20,-500 20,-500 14,-500 8,-494 8,-488 8,-488 8,-20 8,-20 8,-14 14,-8 20,-8"/>
<text text-anchor="start" x="70.8332" y="-481.2" font-family="Helvetica,sans-Serif" font-size="12.00" fill="#000000">spis</text>
</g>
<!-- spis -->
<!-- ST_SIDLE -->
<g id="node2" class="node state regular">
<title>ST_SIDLE</title>
<polygon fill="#ffffff" fill-opacity="0.003922" stroke="transparent" stroke-width="2" points="116,-462 38,-462 38,-426 116,-426 116,-462"/>
<text text-anchor="start" x="48.6608" y="-440.2" font-family="Helvetica,sans-Serif" font-size="12.00" fill="#000000">ST_SIDLE</text>
<path fill="none" stroke="#000000" stroke-width="2" d="M50.3333,-427C50.3333,-427 103.6667,-427 103.6667,-427 109.3333,-427 115,-432.6667 115,-438.3333 115,-438.3333 115,-449.6667 115,-449.6667 115,-455.3333 109.3333,-461 103.6667,-461 103.6667,-461 50.3333,-461 50.3333,-461 44.6667,-461 39,-455.3333 39,-449.6667 39,-449.6667 39,-438.3333 39,-438.3333 39,-432.6667 44.6667,-427 50.3333,-427"/>
</g>
<!-- ST_SEND_N -->
<g id="node3" class="node state regular">
<title>ST_SEND_N</title>
<polygon fill="#ffffff" fill-opacity="0.003922" stroke="transparent" stroke-width="2" points="120,-380 28,-380 28,-344 120,-344 120,-380"/>
<text text-anchor="start" x="38.6654" y="-358.2" font-family="Helvetica,sans-Serif" font-size="12.00" fill="#000000">ST_SEND_N</text>
<path fill="none" stroke="#000000" stroke-width="2" d="M40.3333,-345C40.3333,-345 107.6667,-345 107.6667,-345 113.3333,-345 119,-350.6667 119,-356.3333 119,-356.3333 119,-367.6667 119,-367.6667 119,-373.3333 113.3333,-379 107.6667,-379 107.6667,-379 40.3333,-379 40.3333,-379 34.6667,-379 29,-373.3333 29,-367.6667 29,-367.6667 29,-356.3333 29,-356.3333 29,-350.6667 34.6667,-345 40.3333,-345"/>
</g>
<!-- ST_SIDLE&#45;&gt;ST_SEND_N -->
<g id="edge1" class="edge transition">
<title>ST_SIDLE&#45;&gt;ST_SEND_N</title>
<path fill="none" stroke="#000000" d="M76.3342,-425.8015C75.9536,-415.3976 75.4679,-402.1215 75.0382,-390.3768"/>
<polygon fill="#000000" stroke="#000000" points="78.5273,-390.0129 74.6639,-380.1476 71.532,-390.2689 78.5273,-390.0129"/>
<text text-anchor="start" x="75" y="-400" font-family="Helvetica,sans-Serif" font-size="10.00" fill="#000000">spis_tx &#160;&#160;</text>
</g>
<!-- ST_SEND_0 -->
<g id="node4" class="node state regular">
<title>ST_SEND_0</title>
<polygon fill="#ffffff" fill-opacity="0.003922" stroke="transparent" stroke-width="2" points="119,-298 29,-298 29,-262 119,-262 119,-298"/>
<text text-anchor="start" x="39.6614" y="-276.2" font-family="Helvetica,sans-Serif" font-size="12.00" fill="#000000">ST_SEND_0</text>
<path fill="none" stroke="#000000" stroke-width="2" d="M41.3333,-263C41.3333,-263 106.6667,-263 106.6667,-263 112.3333,-263 118,-268.6667 118,-274.3333 118,-274.3333 118,-285.6667 118,-285.6667 118,-291.3333 112.3333,-297 106.6667,-297 106.6667,-297 41.3333,-297 41.3333,-297 35.6667,-297 30,-291.3333 30,-285.6667 30,-285.6667 30,-274.3333 30,-274.3333 30,-268.6667 35.6667,-263 41.3333,-263"/>
</g>
<!-- ST_SEND_N&#45;&gt;ST_SEND_0 -->
<g id="edge2" class="edge transition">
<title>ST_SEND_N&#45;&gt;ST_SEND_0</title>
<path fill="none" stroke="#000000" d="M74,-343.8015C74,-333.3976 74,-320.1215 74,-308.3768"/>
<polygon fill="#000000" stroke="#000000" points="77.5001,-308.1476 74,-298.1476 70.5001,-308.1476 77.5001,-308.1476"/>
<text text-anchor="middle" x="75.3895" y="-318" font-family="Helvetica,sans-Serif" font-size="10.00" fill="#000000"> </text>
</g>
<!-- ST_SEND_1 -->
<g id="node5" class="node state regular">
<title>ST_SEND_1</title>
<polygon fill="#ffffff" fill-opacity="0.003922" stroke="transparent" stroke-width="2" points="106,-216 16,-216 16,-180 106,-180 106,-216"/>
<text text-anchor="start" x="26.6614" y="-194.2" font-family="Helvetica,sans-Serif" font-size="12.00" fill="#000000">ST_SEND_1</text>
<path fill="none" stroke="#000000" stroke-width="2" d="M28.3333,-181C28.3333,-181 93.6667,-181 93.6667,-181 99.3333,-181 105,-186.6667 105,-192.3333 105,-192.3333 105,-203.6667 105,-203.6667 105,-209.3333 99.3333,-215 93.6667,-215 93.6667,-215 28.3333,-215 28.3333,-215 22.6667,-215 17,-209.3333 17,-203.6667 17,-203.6667 17,-192.3333 17,-192.3333 17,-186.6667 22.6667,-181 28.3333,-181"/>
</g>
<!-- ST_SEND_0&#45;&gt;ST_SEND_1 -->
<g id="edge3" class="edge transition">
<title>ST_SEND_0&#45;&gt;ST_SEND_1</title>
<path fill="none" stroke="#000000" d="M66.0107,-261.8031C64.0494,-256.4899 62.2255,-250.6032 61.221,-245 60.1771,-239.177 59.7067,-232.8826 59.5688,-226.8508"/>
<polygon fill="#000000" stroke="#000000" points="63.071,-226.4553 59.6274,-216.4358 56.0711,-226.4159 63.071,-226.4553"/>
<text text-anchor="middle" x="62.3895" y="-236" font-family="Helvetica,sans-Serif" font-size="10.00" fill="#000000"> </text>
</g>
<!-- ST_SEND_1&#45;&gt;ST_SEND_0 -->
<g id="edge5" class="edge transition">
<title>ST_SEND_1&#45;&gt;ST_SEND_0</title>
<path fill="none" stroke="#000000" d="M63.8771,-216.1476C65.525,-226.5421 67.6294,-239.816 69.4921,-251.5658"/>
<polygon fill="#000000" stroke="#000000" points="66.0922,-252.473 71.1149,-261.8015 73.0058,-251.3768 66.0922,-252.473"/>
<text text-anchor="middle" x="69.3895" y="-236" font-family="Helvetica,sans-Serif" font-size="10.00" fill="#000000"> </text>
</g>
<!-- ST_SEND_2 -->
<g id="node6" class="node state regular">
<title>ST_SEND_2</title>
<polygon fill="#ffffff" fill-opacity="0.003922" stroke="transparent" stroke-width="2" points="114,-134 24,-134 24,-98 114,-98 114,-134"/>
<text text-anchor="start" x="34.6614" y="-112.2" font-family="Helvetica,sans-Serif" font-size="12.00" fill="#000000">ST_SEND_2</text>
<path fill="none" stroke="#000000" stroke-width="2" d="M36.3333,-99C36.3333,-99 101.6667,-99 101.6667,-99 107.3333,-99 113,-104.6667 113,-110.3333 113,-110.3333 113,-121.6667 113,-121.6667 113,-127.3333 107.3333,-133 101.6667,-133 101.6667,-133 36.3333,-133 36.3333,-133 30.6667,-133 25,-127.3333 25,-121.6667 25,-121.6667 25,-110.3333 25,-110.3333 25,-104.6667 30.6667,-99 36.3333,-99"/>
</g>
<!-- ST_SEND_1&#45;&gt;ST_SEND_2 -->
<g id="edge4" class="edge transition">
<title>ST_SEND_1&#45;&gt;ST_SEND_2</title>
<path fill="none" stroke="#000000" d="M55.6323,-179.6134C53.8102,-170.9004 52.6535,-160.3716 54.516,-151 55.0095,-148.5168 55.6822,-145.9888 56.469,-143.4858"/>
<polygon fill="#000000" stroke="#000000" points="59.753,-144.6961 59.9313,-134.1028 53.1858,-142.2728 59.753,-144.6961"/>
<text text-anchor="start" x="54" y="-154" font-family="Helvetica,sans-Serif" font-size="10.00" fill="#000000">spis_count == 15 &#160;&#160;</text>
</g>
<!-- ST_SEND_3 -->
<g id="node7" class="node state regular">
<title>ST_SEND_3</title>
<polygon fill="#ffffff" fill-opacity="0.003922" stroke="transparent" stroke-width="2" points="130,-52 40,-52 40,-16 130,-16 130,-52"/>
<text text-anchor="start" x="50.6614" y="-30.2" font-family="Helvetica,sans-Serif" font-size="12.00" fill="#000000">ST_SEND_3</text>
<path fill="none" stroke="#000000" stroke-width="2" d="M52.3333,-17C52.3333,-17 117.6667,-17 117.6667,-17 123.3333,-17 129,-22.6667 129,-28.3333 129,-28.3333 129,-39.6667 129,-39.6667 129,-45.3333 123.3333,-51 117.6667,-51 117.6667,-51 52.3333,-51 52.3333,-51 46.6667,-51 41,-45.3333 41,-39.6667 41,-39.6667 41,-28.3333 41,-28.3333 41,-22.6667 46.6667,-17 52.3333,-17"/>
</g>
<!-- ST_SEND_2&#45;&gt;ST_SEND_3 -->
<g id="edge6" class="edge transition">
<title>ST_SEND_2&#45;&gt;ST_SEND_3</title>
<path fill="none" stroke="#000000" d="M72.5509,-97.8015C74.6017,-87.2915 77.2243,-73.8503 79.5331,-62.0177"/>
<polygon fill="#000000" stroke="#000000" points="82.979,-62.6328 81.459,-52.1476 76.1086,-61.2922 82.979,-62.6328"/>
<text text-anchor="middle" x="79.3895" y="-72" font-family="Helvetica,sans-Serif" font-size="10.00" fill="#000000"> </text>
</g>
<!-- ST_SEND_3&#45;&gt;ST_SIDLE -->
<g id="edge7" class="edge transition">
<title>ST_SEND_3&#45;&gt;ST_SIDLE</title>
<path fill="none" stroke="#000000" d="M130.1685,-50.5186C138.6929,-56.5371 145,-64.5284 145,-75 145,-142.5 145,-142.5 145,-142.5 145,-185.3981 143,-196.1019 143,-239 143,-403 143,-403 143,-403 143,-414.8031 135.2895,-423.3275 125.1394,-429.4356"/>
<polygon fill="#000000" stroke="#000000" points="123.4738,-426.3561 116.1553,-434.017 126.6539,-432.5921 123.4738,-426.3561"/>
<text text-anchor="middle" x="144.3895" y="-236" font-family="Helvetica,sans-Serif" font-size="10.00" fill="#000000"> </text>
</g>
</g>
</svg>
