<?xml version="1.0" encoding="UTF-8" standalone="no"?>
<!DOCTYPE svg PUBLIC "-//W3C//DTD SVG 1.1//EN"
 "http://www.w3.org/Graphics/SVG/1.1/DTD/svg11.dtd">
<!-- Generated by graphviz version 2.40.1 (20161225.0304)
 -->
<!-- Title: state transitions Pages: 1 -->
<svg width="386pt" height="270pt"
 viewBox="0.00 0.00 386.00 270.00" xmlns="http://www.w3.org/2000/svg" xmlns:xlink="http://www.w3.org/1999/xlink">
<g id="graph0" class="graph" transform="scale(1 1) rotate(0) translate(4 266)">
<title>state transitions</title>
<polygon fill="#ffffff" stroke="transparent" points="-4,4 -4,-266 382,-266 382,4 -4,4"/>
<g id="clust1" class="cluster state regular">
<title>cluster_tstate</title>
<path fill="none" stroke="#000000" stroke-width="2" d="M20,-8C20,-8 358,-8 358,-8 364,-8 370,-14 370,-20 370,-20 370,-242 370,-242 370,-248 364,-254 358,-254 358,-254 20,-254 20,-254 14,-254 8,-248 8,-242 8,-242 8,-20 8,-20 8,-14 14,-8 20,-8"/>
<text text-anchor="start" x="174.827" y="-235.2" font-family="Helvetica,sans-Serif" font-size="12.00" fill="#000000">tstate</text>
</g>
<!-- tstate -->
<!-- TARG_ST_IDLE -->
<g id="node2" class="node state regular">
<title>TARG_ST_IDLE</title>
<polygon fill="#ffffff" fill-opacity="0.003922" stroke="transparent" stroke-width="2" points="207,-216 97,-216 97,-180 207,-180 207,-216"/>
<text text-anchor="start" x="107.6612" y="-194.2" font-family="Helvetica,sans-Serif" font-size="12.00" fill="#000000">TARG_ST_IDLE</text>
<path fill="none" stroke="#000000" stroke-width="2" d="M109.3333,-181C109.3333,-181 194.6667,-181 194.6667,-181 200.3333,-181 206,-186.6667 206,-192.3333 206,-192.3333 206,-203.6667 206,-203.6667 206,-209.3333 200.3333,-215 194.6667,-215 194.6667,-215 109.3333,-215 109.3333,-215 103.6667,-215 98,-209.3333 98,-203.6667 98,-203.6667 98,-192.3333 98,-192.3333 98,-186.6667 103.6667,-181 109.3333,-181"/>
</g>
<!-- TARG_ST_READYTORUN -->
<g id="node3" class="node state regular">
<title>TARG_ST_READYTORUN</title>
<polygon fill="#ffffff" fill-opacity="0.003922" stroke="transparent" stroke-width="2" points="182.5,-134 15.5,-134 15.5,-98 182.5,-98 182.5,-134"/>
<text text-anchor="start" x="26.5028" y="-112.2" font-family="Helvetica,sans-Serif" font-size="12.00" fill="#000000">TARG_ST_READYTORUN</text>
<path fill="none" stroke="#000000" stroke-width="2" d="M27.8333,-99C27.8333,-99 170.1667,-99 170.1667,-99 175.8333,-99 181.5,-104.6667 181.5,-110.3333 181.5,-110.3333 181.5,-121.6667 181.5,-121.6667 181.5,-127.3333 175.8333,-133 170.1667,-133 170.1667,-133 27.8333,-133 27.8333,-133 22.1667,-133 16.5,-127.3333 16.5,-121.6667 16.5,-121.6667 16.5,-110.3333 16.5,-110.3333 16.5,-104.6667 22.1667,-99 27.8333,-99"/>
</g>
<!-- TARG_ST_IDLE&#45;&gt;TARG_ST_READYTORUN -->
<g id="edge1" class="edge transition">
<title>TARG_ST_IDLE&#45;&gt;TARG_ST_READYTORUN</title>
<path fill="none" stroke="#000000" d="M109.7572,-179.9704C103.3734,-175.3785 97.6519,-169.772 93.823,-163 90.717,-157.5066 89.9432,-151.0741 90.3811,-144.7621"/>
<polygon fill="#000000" stroke="#000000" points="93.9092,-144.8728 92.0641,-134.4399 87.0004,-143.7463 93.9092,-144.8728"/>
<text text-anchor="start" x="93" y="-154" font-family="Helvetica,sans-Serif" font-size="10.00" fill="#000000">status_setup_done_queue &#160;&#160;</text>
</g>
<!-- TARG_ST_WAITRESULT -->
<g id="node4" class="node state regular">
<title>TARG_ST_WAITRESULT</title>
<polygon fill="#ffffff" fill-opacity="0.003922" stroke="transparent" stroke-width="2" points="243.5,-52 82.5,-52 82.5,-16 243.5,-16 243.5,-52"/>
<text text-anchor="start" x="93.8328" y="-30.2" font-family="Helvetica,sans-Serif" font-size="12.00" fill="#000000">TARG_ST_WAITRESULT</text>
<path fill="none" stroke="#000000" stroke-width="2" d="M94.8333,-17C94.8333,-17 231.1667,-17 231.1667,-17 236.8333,-17 242.5,-22.6667 242.5,-28.3333 242.5,-28.3333 242.5,-39.6667 242.5,-39.6667 242.5,-45.3333 236.8333,-51 231.1667,-51 231.1667,-51 94.8333,-51 94.8333,-51 89.1667,-51 83.5,-45.3333 83.5,-39.6667 83.5,-39.6667 83.5,-28.3333 83.5,-28.3333 83.5,-22.6667 89.1667,-17 94.8333,-17"/>
</g>
<!-- TARG_ST_READYTORUN&#45;&gt;TARG_ST_WAITRESULT -->
<g id="edge2" class="edge transition">
<title>TARG_ST_READYTORUN&#45;&gt;TARG_ST_WAITRESULT</title>
<path fill="none" stroke="#000000" d="M113.2037,-97.8015C121.821,-86.7606 132.9628,-72.4851 142.5217,-60.2378"/>
<polygon fill="#000000" stroke="#000000" points="145.4424,-62.1842 148.836,-52.1476 139.9242,-57.8773 145.4424,-62.1842"/>
<text text-anchor="middle" x="136.3895" y="-72" font-family="Helvetica,sans-Serif" font-size="10.00" fill="#000000"> </text>
</g>
<!-- TARG_ST_WAITRESULT&#45;&gt;TARG_ST_IDLE -->
<g id="edge3" class="edge transition">
<title>TARG_ST_WAITRESULT&#45;&gt;TARG_ST_IDLE</title>
<path fill="none" stroke="#000000" d="M213.251,-52.0605C220.7359,-57.8434 226,-65.3432 226,-75 226,-157 226,-157 226,-157 226,-165.8675 221.8841,-172.8328 215.5937,-178.2999"/>
<polygon fill="#000000" stroke="#000000" points="213.5349,-175.4685 207.3267,-184.0539 217.5338,-181.2139 213.5349,-175.4685"/>
<text text-anchor="start" x="226" y="-113" font-family="Helvetica,sans-Serif" font-size="10.00" fill="#000000">target_0[31:16] == 16&#39;h6F6B &#160;&#160;</text>
</g>
</g>
</svg>
