<?xml version="1.0" encoding="UTF-8" standalone="no"?>
<!DOCTYPE svg PUBLIC "-//W3C//DTD SVG 1.1//EN"
 "http://www.w3.org/Graphics/SVG/1.1/DTD/svg11.dtd">
<!-- Generated by graphviz version 2.40.1 (20161225.0304)
 -->
<!-- Title: state transitions Pages: 1 -->
<svg width="542pt" height="270pt"
 viewBox="0.00 0.00 542.00 270.00" xmlns="http://www.w3.org/2000/svg" xmlns:xlink="http://www.w3.org/1999/xlink">
<g id="graph0" class="graph" transform="scale(1 1) rotate(0) translate(4 266)">
<title>state transitions</title>
<polygon fill="#ffffff" stroke="transparent" points="-4,4 -4,-266 538,-266 538,4 -4,4"/>
<g id="clust1" class="cluster state regular">
<title>cluster_hstate</title>
<path fill="none" stroke="#000000" stroke-width="2" d="M20,-8C20,-8 514,-8 514,-8 520,-8 526,-14 526,-20 526,-20 526,-242 526,-242 526,-248 520,-254 514,-254 514,-254 20,-254 20,-254 14,-254 8,-248 8,-242 8,-242 8,-20 8,-20 8,-14 14,-8 20,-8"/>
<text text-anchor="start" x="250.659" y="-235.2" font-family="Helvetica,sans-Serif" font-size="12.00" fill="#000000">hstate</text>
</g>
<!-- hstate -->
<!-- ST_IDLE -->
<g id="node2" class="node state regular">
<title>ST_IDLE</title>
<polygon fill="#ffffff" fill-opacity="0.003922" stroke="transparent" stroke-width="2" points="309,-134 239,-134 239,-98 309,-98 309,-134"/>
<text text-anchor="start" x="249.6622" y="-112.2" font-family="Helvetica,sans-Serif" font-size="12.00" fill="#000000">ST_IDLE</text>
<path fill="none" stroke="#000000" stroke-width="2" d="M251.3333,-99C251.3333,-99 296.6667,-99 296.6667,-99 302.3333,-99 308,-104.6667 308,-110.3333 308,-110.3333 308,-121.6667 308,-121.6667 308,-127.3333 302.3333,-133 296.6667,-133 296.6667,-133 251.3333,-133 251.3333,-133 245.6667,-133 240,-127.3333 240,-121.6667 240,-121.6667 240,-110.3333 240,-110.3333 240,-104.6667 245.6667,-99 251.3333,-99"/>
</g>
<!-- ST_PARSE -->
<g id="node3" class="node state regular">
<title>ST_PARSE</title>
<polygon fill="#ffffff" fill-opacity="0.003922" stroke="transparent" stroke-width="2" points="316,-52 232,-52 232,-16 316,-16 316,-52"/>
<text text-anchor="start" x="242.6608" y="-30.2" font-family="Helvetica,sans-Serif" font-size="12.00" fill="#000000">ST_PARSE</text>
<path fill="none" stroke="#000000" stroke-width="2" d="M244.3333,-17C244.3333,-17 303.6667,-17 303.6667,-17 309.3333,-17 315,-22.6667 315,-28.3333 315,-28.3333 315,-39.6667 315,-39.6667 315,-45.3333 309.3333,-51 303.6667,-51 303.6667,-51 244.3333,-51 244.3333,-51 238.6667,-51 233,-45.3333 233,-39.6667 233,-39.6667 233,-28.3333 233,-28.3333 233,-22.6667 238.6667,-17 244.3333,-17"/>
</g>
<!-- ST_IDLE&#45;&gt;ST_PARSE -->
<g id="edge1" class="edge transition">
<title>ST_IDLE&#45;&gt;ST_PARSE</title>
<path fill="none" stroke="#000000" d="M274,-97.8015C274,-87.3976 274,-74.1215 274,-62.3768"/>
<polygon fill="#000000" stroke="#000000" points="277.5001,-62.1476 274,-52.1476 270.5001,-62.1476 277.5001,-62.1476"/>
<text text-anchor="start" x="274" y="-72" font-family="Helvetica,sans-Serif" font-size="10.00" fill="#000000">host_cmd_start &#160;&#160;</text>
</g>
<!-- ST_WORK -->
<g id="node4" class="node state regular">
<title>ST_WORK</title>
<polygon fill="#ffffff" fill-opacity="0.003922" stroke="transparent" stroke-width="2" points="495.5,-216 414.5,-216 414.5,-180 495.5,-180 495.5,-216"/>
<text text-anchor="start" x="425.8342" y="-194.2" font-family="Helvetica,sans-Serif" font-size="12.00" fill="#000000">ST_WORK</text>
<path fill="none" stroke="#000000" stroke-width="2" d="M426.8333,-181C426.8333,-181 483.1667,-181 483.1667,-181 488.8333,-181 494.5,-186.6667 494.5,-192.3333 494.5,-192.3333 494.5,-203.6667 494.5,-203.6667 494.5,-209.3333 488.8333,-215 483.1667,-215 483.1667,-215 426.8333,-215 426.8333,-215 421.1667,-215 415.5,-209.3333 415.5,-203.6667 415.5,-203.6667 415.5,-192.3333 415.5,-192.3333 415.5,-186.6667 421.1667,-181 426.8333,-181"/>
</g>
<!-- ST_WORK&#45;&gt;ST_IDLE -->
<g id="edge2" class="edge transition">
<title>ST_WORK&#45;&gt;ST_IDLE</title>
<path fill="none" stroke="#000000" d="M414.8302,-179.8015C386.261,-166.8586 347.8799,-149.4704 318.4014,-136.1155"/>
<polygon fill="#000000" stroke="#000000" points="319.7201,-132.8706 309.167,-131.932 316.8314,-139.2468 319.7201,-132.8706"/>
<text text-anchor="middle" x="377.3895" y="-154" font-family="Helvetica,sans-Serif" font-size="10.00" fill="#000000"> </text>
</g>
<!-- ST_DONE_OK -->
<g id="node5" class="node state regular">
<title>ST_DONE_OK</title>
<polygon fill="#ffffff" fill-opacity="0.003922" stroke="transparent" stroke-width="2" points="392,-216 290,-216 290,-180 392,-180 392,-216"/>
<text text-anchor="start" x="300.662" y="-194.2" font-family="Helvetica,sans-Serif" font-size="12.00" fill="#000000">ST_DONE_OK</text>
<path fill="none" stroke="#000000" stroke-width="2" d="M302.3333,-181C302.3333,-181 379.6667,-181 379.6667,-181 385.3333,-181 391,-186.6667 391,-192.3333 391,-192.3333 391,-203.6667 391,-203.6667 391,-209.3333 385.3333,-215 379.6667,-215 379.6667,-215 302.3333,-215 302.3333,-215 296.6667,-215 291,-209.3333 291,-203.6667 291,-203.6667 291,-192.3333 291,-192.3333 291,-186.6667 296.6667,-181 302.3333,-181"/>
</g>
<!-- ST_DONE_OK&#45;&gt;ST_IDLE -->
<g id="edge3" class="edge transition">
<title>ST_DONE_OK&#45;&gt;ST_IDLE</title>
<path fill="none" stroke="#000000" d="M326.1305,-179.8015C317.1093,-168.7606 305.4451,-154.4851 295.4382,-142.2378"/>
<polygon fill="#000000" stroke="#000000" points="297.8655,-139.6768 288.8279,-134.1476 292.4448,-144.1059 297.8655,-139.6768"/>
<text text-anchor="middle" x="312.3895" y="-154" font-family="Helvetica,sans-Serif" font-size="10.00" fill="#000000"> </text>
</g>
<!-- ST_DONE_CODE -->
<g id="node6" class="node state regular">
<title>ST_DONE_CODE</title>
<polygon fill="#ffffff" fill-opacity="0.003922" stroke="transparent" stroke-width="2" points="268,-216 148,-216 148,-180 268,-180 268,-216"/>
<text text-anchor="start" x="158.9992" y="-194.2" font-family="Helvetica,sans-Serif" font-size="12.00" fill="#000000">ST_DONE_CODE</text>
<path fill="none" stroke="#000000" stroke-width="2" d="M160.3333,-181C160.3333,-181 255.6667,-181 255.6667,-181 261.3333,-181 267,-186.6667 267,-192.3333 267,-192.3333 267,-203.6667 267,-203.6667 267,-209.3333 261.3333,-215 255.6667,-215 255.6667,-215 160.3333,-215 160.3333,-215 154.6667,-215 149,-209.3333 149,-203.6667 149,-203.6667 149,-192.3333 149,-192.3333 149,-186.6667 154.6667,-181 160.3333,-181"/>
</g>
<!-- ST_DONE_CODE&#45;&gt;ST_IDLE -->
<g id="edge4" class="edge transition">
<title>ST_DONE_CODE&#45;&gt;ST_IDLE</title>
<path fill="none" stroke="#000000" d="M222.6475,-179.8015C231.5341,-168.7606 243.0242,-154.4851 252.8818,-142.2378"/>
<polygon fill="#000000" stroke="#000000" points="255.8498,-144.1323 259.3934,-134.1476 250.3967,-139.7432 255.8498,-144.1323"/>
<text text-anchor="middle" x="246.3895" y="-154" font-family="Helvetica,sans-Serif" font-size="10.00" fill="#000000"> </text>
</g>
<!-- ST_DONE_ERR -->
<g id="node7" class="node state regular">
<title>ST_DONE_ERR</title>
<polygon fill="#ffffff" fill-opacity="0.003922" stroke="transparent" stroke-width="2" points="126,-216 16,-216 16,-180 126,-180 126,-216"/>
<text text-anchor="start" x="26.6666" y="-194.2" font-family="Helvetica,sans-Serif" font-size="12.00" fill="#000000">ST_DONE_ERR</text>
<path fill="none" stroke="#000000" stroke-width="2" d="M28.3333,-181C28.3333,-181 113.6667,-181 113.6667,-181 119.3333,-181 125,-186.6667 125,-192.3333 125,-192.3333 125,-203.6667 125,-203.6667 125,-209.3333 119.3333,-215 113.6667,-215 113.6667,-215 28.3333,-215 28.3333,-215 22.6667,-215 17,-209.3333 17,-203.6667 17,-203.6667 17,-192.3333 17,-192.3333 17,-186.6667 22.6667,-181 28.3333,-181"/>
</g>
<!-- ST_DONE_ERR&#45;&gt;ST_IDLE -->
<g id="edge5" class="edge transition">
<title>ST_DONE_ERR&#45;&gt;ST_IDLE</title>
<path fill="none" stroke="#000000" d="M115.8005,-179.9032C149.4882,-166.2954 195.4449,-147.7316 229.1456,-134.1185"/>
<polygon fill="#000000" stroke="#000000" points="230.7826,-137.2321 238.7438,-130.2414 228.1608,-130.7416 230.7826,-137.2321"/>
<text text-anchor="middle" x="186.3895" y="-154" font-family="Helvetica,sans-Serif" font-size="10.00" fill="#000000"> </text>
</g>
</g>
</svg>
